<svg width="321" height="181" viewBox="0 0 321 181" fill="none" xmlns="http://www.w3.org/2000/svg">
<path d="M138.205 0.706161L320.903 0.706185L320.903 180.527L138.205 180.527L138.205 106.964L187.015 106.964C190.886 116.727 198.102 124.851 207.414 129.933C216.726 135.015 227.549 136.735 238.013 134.796C248.477 132.857 257.923 127.381 264.72 119.314C271.517 111.247 275.237 101.097 275.237 90.6168C275.237 80.1369 271.517 69.9864 264.72 61.9196C257.923 53.8527 248.477 48.3766 238.013 46.4377C227.549 44.4988 216.726 46.2189 207.414 51.3008C198.102 56.3827 190.886 64.5069 187.015 74.2694L138.205 74.2694L138.205 0.706161Z" fill="#103F8E"/>
<path fill-rule="evenodd" clip-rule="evenodd" d="M70.6274 51.7866C63.6922 47.645 55.5833 45.2653 46.9185 45.2653C21.3429 45.2653 0.609885 65.9983 0.609883 91.5739C0.60988 117.149 21.3429 137.882 46.9185 137.882C67.0162 137.882 84.1237 125.079 90.5299 107.185L138.121 107.185L138.121 74.3184L89.9054 74.3184C88.9952 72.0531 87.9111 69.8763 86.6697 67.8047C84.7407 64.5268 82.3995 61.4978 79.6963 58.7946C76.977 56.0753 73.928 53.7222 70.6274 51.7866Z" fill="#FF5740"/>
</svg>
