<svg width="581" height="341" viewBox="0 0 581 341" fill="none" xmlns="http://www.w3.org/2000/svg">
<path d="M262.579 147.923L262.579 212.007L175.507 212.007C168.146 228.877 155.2 242.697 138.847 251.143C122.495 259.59 103.732 262.149 85.7148 258.389C67.6975 254.629 51.5244 244.779 39.915 230.497C28.3056 216.215 21.9681 198.371 21.9681 179.965C21.9681 161.56 28.3056 143.715 39.915 129.433C51.5244 115.151 67.6975 105.302 85.7149 101.542C103.732 97.7816 122.495 100.34 138.847 108.787C155.2 117.234 168.146 131.054 175.507 147.923L262.579 147.923Z" fill="#FF5740"/>
<path d="M500.841 179.958C500.834 161.555 494.493 143.715 482.882 129.436C471.271 115.158 455.099 105.312 437.084 101.554C419.068 97.795 400.308 100.353 383.957 108.797C367.605 117.242 354.659 131.058 347.295 147.923L260.524 147.923L260.524 19.7544L580.946 19.7544L580.946 340.176L260.524 340.176L260.524 212.008L347.295 212.008C354.659 228.874 367.606 242.69 383.958 251.134C400.311 259.579 419.071 262.136 437.087 258.376C455.103 254.617 471.275 244.77 482.886 230.49C494.496 216.211 500.836 198.369 500.841 179.965L500.841 179.958Z" fill="#FF5740"/>
<path d="M231.582 127.372L242.144 127.372L242.144 137.921L239.388 137.921L239.388 130.124L231.582 130.124L231.582 127.372Z" fill="#FF5740"/>
<path d="M239.388 168.147L242.144 168.147L242.144 153.039L239.388 153.039L239.388 168.147Z" fill="#FF5740"/>
<path d="M239.388 183.256L242.144 183.256L242.144 193.805L231.582 193.805L231.582 191.053L239.388 191.053L239.388 183.256Z" fill="#FF5740"/>
<path d="M186.08 193.805L208.829 193.805L208.829 191.053L186.08 191.053L186.08 193.805Z" fill="#FF5740"/>
<path d="M153.261 191.053L163.363 191.053L163.363 193.805L155.097 193.805C153.937 196.367 152.647 198.869 151.231 201.299L148.852 199.914C150.367 197.316 151.732 194.633 152.939 191.878L153.261 191.053Z" fill="#FF5740"/>
<path d="M73.4738 79.9184L73.731 82.6704C67.8153 83.2315 61.9826 84.4625 56.3452 86.3397L55.4819 83.7345C61.3149 81.7848 67.351 80.5045 73.4738 79.9184ZM91.8423 80.2761C97.9423 81.0826 103.93 82.5846 109.687 84.7527L108.714 87.3304C103.154 85.2391 97.3731 83.7865 91.4841 83.0006L91.8423 80.2761ZM38.785 91.4492L40.1993 93.8343C35.1326 96.9326 30.434 100.595 26.1934 104.751L24.2647 102.787C28.669 98.4851 33.5462 94.6938 38.8033 91.4859L38.785 91.4492ZM126.035 93.1554C131.149 96.5669 135.86 100.546 140.078 105.017L138.076 106.906C134.005 102.614 129.464 98.7921 124.538 95.513L126.035 93.1554ZM12.6925 117.006L15.0162 118.492C11.8181 123.493 9.20207 128.842 7.21877 134.435L4.61961 133.518C6.68629 127.74 9.40391 122.216 12.7201 117.052L12.6925 117.006ZM0.52343 151.47L3.27869 151.782C2.6113 157.677 2.6113 163.628 3.27869 169.523L0.523428 169.835C0.174338 166.765 -0.000450983 163.678 -8.45019e-05 160.588C0.00844543 157.542 0.183205 154.498 0.52343 151.47ZM7.28301 186.806C9.27611 192.397 11.9014 197.743 15.108 202.74L12.7935 204.226C9.46936 199.048 6.74852 193.509 4.6839 187.714L7.28301 186.806ZM138.186 214.142L140.197 216.023C135.987 220.512 131.282 224.513 126.173 227.948L124.639 225.664C129.573 222.343 134.117 218.478 138.186 214.142ZM26.322 216.5C30.5693 220.653 35.274 224.312 40.3462 227.407L38.9135 229.755C33.6607 226.542 28.7895 222.745 24.3932 218.435L26.322 216.5ZM108.851 233.764L109.825 236.342C104.073 238.513 98.0924 240.024 91.9984 240.846L91.631 238.094C97.517 237.307 103.294 235.855 108.851 233.764ZM56.5013 234.874C62.1439 236.733 67.9796 237.945 73.8963 238.488L73.6483 241.24C67.5214 240.679 61.4788 239.42 55.638 237.488L56.5013 234.874Z" fill="#FF5740"/>
<path d="M151.189 119.877C152.611 122.305 153.901 124.807 155.056 127.372L163.322 127.372L163.322 130.124L153.219 130.124L152.861 129.298C151.654 126.544 150.289 123.861 148.774 121.263L151.189 119.877Z" fill="#FF5740"/>
<path d="M186.08 130.124L208.829 130.124L208.829 127.372L186.08 127.372L186.08 130.124Z" fill="#FF5740"/>
<path d="M330.074 119.877L332.462 121.263C330.947 123.861 329.583 126.544 328.375 129.298L328.017 130.124L317.915 130.124L317.915 127.372L326.18 127.372C327.348 124.808 328.647 122.307 330.074 119.877Z" fill="#FF5740"/>
<path d="M272.609 130.124L295.267 130.124L295.267 127.372L272.609 127.372L272.609 130.124Z" fill="#FF5740"/>
<path d="M239.386 119.575L242.141 119.575L242.141 127.372L249.948 127.372L249.948 130.124L239.386 130.124L239.386 119.575Z" fill="#FF5740"/>
<path d="M239.388 26.1257L242.144 26.1257L242.144 41.7203L239.388 41.7203L239.388 26.1257ZM239.388 57.2691L242.144 57.2691L242.144 72.8637L239.388 72.8637L239.388 57.2691ZM239.388 88.4584L242.144 88.4584L242.144 104.053L239.388 104.053L239.388 88.4584Z" fill="#FF5740"/>
<path d="M239.386 0.000353843L249.948 0.000354767L249.948 2.75235L242.141 2.75235L242.141 10.5497L239.386 10.5497L239.386 0.000353843Z" fill="#FF5740"/>
<path d="M267.621 0.000546884L285.291 0.000548428L285.291 2.75254L267.621 2.75254L267.621 0.000546884ZM302.971 0.000549974L320.641 0.000551519L320.641 2.75254L302.971 2.75254L302.971 0.000549974ZM338.312 0.000553064L355.982 0.000554608L355.982 2.75255L338.312 2.75255L338.312 0.000553064ZM373.662 0.000556154L391.332 0.000557699L391.332 2.75255L373.662 2.75255L373.662 0.000556154ZM409.003 0.000559244L426.673 0.000560788L426.673 2.75255L409.003 2.75255L409.003 0.000559244ZM444.353 0.000562334L462.023 0.000563879L462.023 2.75256L444.307 2.75256L444.353 0.000562334ZM479.694 0.000565424L497.364 0.000566968L497.364 2.75256L479.694 2.75256L479.694 0.000565424ZM515.044 0.000568514L532.714 0.000570059L532.714 2.75256L515.026 2.75256L515.044 0.000568514Z" fill="#FF5740"/>
<path d="M550.384 0.000231773L560.946 0.000232697L560.946 10.5496L558.191 10.5496L558.191 2.75223L550.384 2.75223L550.384 0.000231773Z" fill="#FF5740"/>
<path d="M558.191 28.1991L560.946 28.1991L560.946 45.8485L558.191 45.8485L558.191 28.1991ZM558.191 63.5071L560.946 63.5071L560.946 81.1566L558.191 81.1566L558.191 63.5071ZM558.191 98.8061L560.946 98.8061L560.946 116.456L558.191 116.456L558.191 98.8061ZM558.191 134.114L560.946 134.114L560.946 151.764L558.191 151.764L558.191 134.114ZM558.191 169.413L560.946 169.413L560.946 187.062L558.191 187.062L558.191 169.413ZM558.191 204.675L560.946 204.675L560.946 222.371L558.191 222.371L558.191 204.675ZM558.191 240.02L560.946 240.02L560.946 257.669L558.191 257.669L558.191 240.02ZM558.191 275.31L560.946 275.31L560.946 292.978L558.191 292.978L558.191 275.31Z" fill="#FF5740"/>
<path d="M558.191 310.627L560.946 310.627L560.946 321.176L550.384 321.176L550.384 318.424L558.191 318.424L558.191 310.627Z" fill="#FF5740"/>
<path d="M267.621 318.424L285.291 318.424L285.291 321.176L267.621 321.176L267.621 318.424ZM302.971 318.424L320.641 318.424L320.641 321.176L302.971 321.176L302.971 318.424ZM338.312 318.424L355.982 318.424L355.982 321.176L338.312 321.176L338.312 318.424ZM373.662 318.424L391.332 318.424L391.332 321.176L373.662 321.176L373.662 318.424ZM409.003 318.424L426.673 318.424L426.673 321.176L409.003 321.176L409.003 318.424ZM444.307 318.424L462.023 318.424L462.023 321.176L444.307 321.176L444.307 318.424ZM479.694 318.424L497.364 318.424L497.364 321.176L479.694 321.176L479.694 318.424ZM515.026 318.424L532.714 318.424L532.714 321.176L515.026 321.176L515.026 318.424Z" fill="#FF5740"/>
<path d="M239.386 310.627L242.141 310.627L242.141 318.424L249.948 318.424L249.948 321.176L239.386 321.176L239.386 310.627Z" fill="#FF5740"/>
<path d="M239.388 217.179L242.144 217.179L242.144 232.773L239.388 232.773L239.388 217.179ZM239.388 248.368L242.144 248.368L242.144 263.963L239.388 263.963L239.388 248.368ZM239.388 279.511L242.144 279.511L242.144 295.106L239.388 295.106L239.388 279.511Z" fill="#FF5740"/>
<path d="M239.386 191.053L249.948 191.053L249.948 193.805L242.141 193.805L242.141 201.602L239.386 201.602L239.386 191.053Z" fill="#FF5740"/>
<path d="M272.609 193.805L295.267 193.805L295.267 191.053L272.609 191.053L272.609 193.805Z" fill="#FF5740"/>
<path d="M317.932 191.053L328.035 191.053L328.393 191.878C329.6 194.633 330.965 197.316 332.48 199.914L330.092 201.299C328.679 198.869 327.392 196.367 326.235 193.805L317.969 193.805L317.932 191.053Z" fill="#FF5740"/>
<path d="M407.8 79.918C413.921 80.4923 419.957 81.7602 425.791 83.6974L424.928 86.3118C419.3 84.4419 413.476 83.2201 407.57 82.67L407.8 79.918ZM389.431 80.2758L389.789 83.0278C383.9 83.8137 378.12 85.2663 372.56 87.3576L371.586 84.7799C377.338 82.6162 383.319 81.1173 389.413 80.3124L389.431 80.2758ZM442.47 91.4856C447.711 94.697 452.572 98.4881 456.963 102.787L455.034 104.75C450.789 100.599 446.091 96.9376 441.028 93.8339L442.47 91.4856ZM355.22 93.1918L356.754 95.4851C351.812 98.782 347.258 102.626 343.179 106.943L341.177 105.053C345.395 100.582 350.106 96.6033 355.22 93.1918ZM468.562 117.042C471.87 122.223 474.579 127.763 476.635 133.554L474.036 134.472C472.053 128.878 469.437 123.529 466.239 118.528L468.562 117.042ZM480.741 151.47C481.431 157.566 481.431 163.72 480.741 169.816L477.985 169.505C478.319 166.538 478.488 163.555 478.491 160.57C478.491 157.627 478.326 154.687 477.995 151.763L480.741 151.47ZM473.99 186.815L476.58 187.732C474.522 193.526 471.807 199.066 468.489 204.244L466.165 202.758C469.373 197.758 471.998 192.409 473.99 186.815ZM343.087 214.142C347.158 218.465 351.702 222.317 356.634 225.627L355.1 227.911C349.991 224.476 345.287 220.475 341.076 215.986L343.087 214.142ZM454.951 216.509L456.88 218.472C452.48 222.766 447.609 226.551 442.36 229.755L440.927 227.407C445.997 224.312 450.702 220.657 454.951 216.509ZM372.422 233.764C377.978 235.865 383.755 237.327 389.642 238.121L389.275 240.873C383.181 240.052 377.2 238.54 371.448 236.369L372.422 233.764ZM424.772 234.874L425.635 237.479C419.795 239.412 413.752 240.671 407.625 241.231L407.377 238.479C413.306 237.942 419.154 236.733 424.809 234.874L424.772 234.874Z" fill="#FF5740"/>
</svg>
