<svg width="28" height="29" viewBox="0 0 28 29" fill="none" xmlns="http://www.w3.org/2000/svg">
<path d="M14 0.831055C6.29999 0.831055 0 7.1423 0 14.9154C0 21.9435 5.12399 27.7768 11.816 28.8311V18.9917H8.25999V14.9154H11.816V11.809C11.816 8.28086 13.902 6.3411 17.108 6.3411C18.634 6.3411 20.23 6.60816 20.23 6.60816V10.0801H18.466C16.73 10.0801 16.184 11.1624 16.184 12.2728V14.9154H20.076L19.446 18.9917H16.184V28.8311C19.483 28.3079 22.4871 26.6179 24.6539 24.0661C26.8207 21.5142 28.0075 18.2687 28 14.9154C28 7.1423 21.7 0.831055 14 0.831055Z" fill="#4385F5"/>
</svg>
