<svg width="717" height="489" viewBox="0 0 717 489" fill="none" xmlns="http://www.w3.org/2000/svg">
<path d="M421.309 246.505C422.53 249.227 423.869 251.888 425.319 254.482L423.137 255.702C424.627 258.368 426.232 260.964 427.946 263.483L430.013 262.077C431.688 264.539 433.47 266.926 435.353 269.233L433.417 270.814C435.344 273.175 437.374 275.452 439.502 277.641L441.294 275.898C443.366 278.029 445.533 280.073 447.789 282.025L446.154 283.915C448.454 285.905 450.845 287.8 453.32 289.594L454.787 287.57C457.189 289.311 459.673 290.956 462.234 292.497L460.945 294.639C462.248 295.423 463.57 296.181 464.911 296.912C466.265 297.65 467.632 298.358 469.012 299.036L470.114 296.791C472.82 298.12 475.575 299.328 478.373 300.416L477.467 302.746C480.34 303.863 483.257 304.856 486.207 305.722L486.911 303.323C489.798 304.171 492.719 304.894 495.666 305.493L495.168 307.943C498.184 308.556 501.225 309.041 504.284 309.397L504.573 306.914C507.557 307.261 510.558 307.482 513.568 307.575L513.49 310.074C516.562 310.169 519.641 310.135 522.721 309.969L522.587 307.473C525.582 307.312 528.578 307.024 531.565 306.608L531.91 309.084C533.432 308.872 534.951 308.627 536.468 308.35C537.978 308.074 539.48 307.766 540.972 307.428L540.419 304.99C543.349 304.325 546.24 303.538 549.085 302.634L549.842 305.016C552.771 304.085 555.652 303.033 558.477 301.862L557.52 299.552C560.291 298.404 563.008 297.14 565.663 295.765L566.813 297.984C569.538 296.573 572.199 295.046 574.789 293.409L573.453 291.296C575.985 289.696 578.446 287.988 580.831 286.176L582.344 288.167C584.783 286.313 587.144 284.354 589.42 282.292L587.741 280.439C589.956 278.432 592.087 276.326 594.127 274.126L595.961 275.825C597.002 274.702 598.02 273.555 599.014 272.384C599.997 271.226 600.953 270.05 601.881 268.856L599.908 267.322C601.731 264.976 603.444 262.561 605.045 260.085L607.145 261.442C608.795 258.889 610.329 256.272 611.744 253.598L609.534 252.429C610.92 249.809 612.189 247.133 613.337 244.41L615.641 245.381C616.82 242.585 617.875 239.74 618.802 236.854L616.422 236.089C617.328 233.272 618.109 230.416 618.764 227.528L621.202 228.081C621.871 225.127 622.411 222.141 622.818 219.13L620.341 218.795C620.736 215.87 621.004 212.921 621.14 209.956L623.637 210.071C623.706 208.558 623.743 207.042 623.745 205.523C623.747 204.003 623.716 202.487 623.651 200.974L621.154 201.081C621.027 198.116 620.769 195.166 620.383 192.24L622.861 191.913C622.463 188.901 621.933 185.913 621.273 182.957L618.833 183.501C618.188 180.612 617.415 177.753 616.519 174.934L618.901 174.176C617.982 171.287 616.936 168.439 615.766 165.639L613.459 166.603C612.32 163.876 611.06 161.197 609.682 158.572L611.895 157.41C610.489 154.732 608.963 152.11 607.321 149.552L605.217 150.902C603.624 148.421 601.918 146.001 600.102 143.65L602.081 142.122C601.156 140.925 600.204 139.745 599.225 138.584C598.234 137.41 597.22 136.26 596.182 135.133L594.343 136.827C592.31 134.62 590.185 132.508 587.977 130.494L589.661 128.646C587.393 126.578 585.038 124.61 582.604 122.749L581.085 124.735C578.706 122.916 576.25 121.2 573.723 119.592L575.065 117.483C572.481 115.838 569.824 114.303 567.104 112.883L565.947 115.099C563.297 113.715 560.584 112.442 557.816 111.286L558.78 108.979C555.959 107.8 553.081 106.738 550.156 105.797L549.391 108.177C546.549 107.264 543.66 106.468 540.732 105.794L541.293 103.358C539.802 103.015 538.301 102.703 536.792 102.422C535.276 102.14 533.757 101.891 532.236 101.674L531.883 104.149C528.898 103.723 525.903 103.426 522.908 103.255L523.05 100.759C519.971 100.584 516.891 100.54 513.82 100.626L513.889 103.125C510.88 103.209 507.878 103.42 504.892 103.758L504.611 101.274C501.551 101.62 498.508 102.095 495.49 102.699L495.981 105.15C493.033 105.74 490.109 106.454 487.219 107.293L486.523 104.892C483.57 105.749 480.65 106.732 477.773 107.84L478.672 110.173C475.871 111.252 473.112 112.452 470.401 113.772L469.307 111.524C467.925 112.197 466.555 112.901 465.199 113.634C463.856 114.361 462.531 115.115 461.226 115.896L462.508 118.042C459.943 119.575 457.454 121.211 455.046 122.945L453.585 120.916C451.104 122.702 448.708 124.59 446.401 126.572L448.031 128.468C445.769 130.412 443.595 132.45 441.517 134.574L439.73 132.826C437.595 135.007 435.557 137.279 433.623 139.633L435.554 141.22C433.664 143.521 431.875 145.903 430.192 148.359L428.13 146.946C426.407 149.461 424.794 152.051 423.295 154.712L425.474 155.939C424.016 158.528 422.669 161.185 421.439 163.904L419.161 162.874C418.766 163.746 418.383 164.625 418.012 165.509L415.045 165.505L415.041 168.005L405.745 167.99L405.749 165.49L396.454 165.476L396.45 167.976L387.155 167.961L387.159 165.461L377.863 165.446L377.859 167.946L368.564 167.932L368.568 165.432L359.272 165.417L359.269 167.917L349.973 167.902L349.977 165.402L340.682 165.388L340.678 167.888L331.382 167.873L331.386 165.373L322.091 165.359L322.087 167.859L312.792 167.844L312.796 165.344L310.648 165.341L310.652 162.611L308.152 162.607L308.169 152.147L310.669 152.151L310.685 141.692L308.185 141.688L308.201 131.228L310.701 131.232L310.718 120.773L308.218 120.769L308.234 110.309L310.734 110.313L310.751 99.8535L308.251 99.8496L308.267 89.3901L310.767 89.394L310.784 78.9344L308.284 78.9305L308.3 68.471L310.8 68.4749L310.817 58.0153L308.317 58.0114L308.333 47.5519L310.833 47.5558L310.85 37.0963L308.35 37.0923L308.366 26.6328L310.866 26.6367L310.882 16.1772L308.382 16.1732L308.399 5.71368L310.899 5.71761L310.903 2.98785L313.373 2.99173L313.377 0.491735L323.318 0.507371L323.314 3.00737L333.255 3.023L333.259 0.523008L343.2 0.538644L343.196 3.03864L353.137 3.05428L353.141 0.554281L363.082 0.569917L363.078 3.06991L373.019 3.08555L373.023 0.585554L382.964 0.60119L382.96 3.10119L392.901 3.11682L392.905 0.616827L402.846 0.632463L402.842 3.13246L412.783 3.1481L412.787 0.6481L422.728 0.663736L422.724 3.16373L432.665 3.17937L432.669 0.679373L442.61 0.695009L442.606 3.19501L452.547 3.21064L452.551 0.710646L462.492 0.726283L462.488 3.22628L472.429 3.24192L472.433 0.741919L482.374 0.757556L482.37 3.25755L492.311 3.27319L492.315 0.773192L502.256 0.788829L502.252 3.28883L512.193 3.30446L512.197 0.804465L522.138 0.820102L522.134 3.3201L532.075 3.33574L532.079 0.835738L542.02 0.851375L542.016 3.35137L551.957 3.36701L551.961 0.867011L561.902 0.882648L561.898 3.38264L571.839 3.39828L571.843 0.898284L581.784 0.913921L581.78 3.41392L591.721 3.42955L591.725 0.929557L601.666 0.945194L601.662 3.44519L611.603 3.46083L611.607 0.96083L621.548 0.976467L621.544 3.47646L631.485 3.4921L631.489 0.992103L641.43 1.00774L641.426 3.50774L651.367 3.52337L651.371 1.02338L661.312 1.03901L661.308 3.53901L671.249 3.55465L671.253 1.05465L681.194 1.07029L681.19 3.57028L691.131 3.58592L691.135 1.08592L701.076 1.10156L701.072 3.60156L711.013 3.61719L711.017 1.1172L720.958 1.13283L720.954 3.63283L723.424 3.63671L723.42 6.25036L725.92 6.25429L725.904 16.4814L723.404 16.4775L723.388 26.7046L725.888 26.7085L725.872 36.9356L723.372 36.9317L723.356 47.1588L725.856 47.1627L725.84 57.3898L723.34 57.3859L723.324 67.613L725.824 67.6169L725.808 77.844L723.308 77.8401L723.292 88.0672L725.792 88.0711L725.776 98.2982L723.276 98.2943L723.26 108.521L725.76 108.525L725.743 118.752L723.243 118.748L723.227 128.976L725.727 128.979L725.711 139.207L723.211 139.203L723.195 149.43L725.695 149.434L725.679 159.661L723.179 159.657L723.163 169.884L725.663 169.888L725.647 180.115L723.147 180.111L723.131 190.338L725.631 190.342L725.615 200.569L723.115 200.565L723.099 210.792L725.599 210.796L725.583 221.023L723.083 221.02L723.066 231.247L725.566 231.251L725.55 241.478L723.05 241.474L723.034 251.701L725.534 251.705L725.518 261.932L723.018 261.928L723.002 272.155L725.502 272.159L725.486 282.386L722.986 282.382L722.97 292.609L725.47 292.613L725.454 302.84L722.954 302.836L722.938 313.064L725.438 313.068L725.422 323.295L722.922 323.291L722.906 333.518L725.406 333.522L725.39 343.749L722.89 343.745L722.873 353.972L725.373 353.976L725.357 364.203L722.857 364.199L722.841 374.426L725.341 374.43L725.325 384.657L722.825 384.653L722.809 394.88L725.309 394.884L725.293 405.112L722.793 405.108L722.789 407.721L720.319 407.717L720.315 410.217L710.374 410.202L710.378 407.702L700.437 407.686L700.433 410.186L690.492 410.17L690.496 407.67L680.555 407.655L680.551 410.155L670.61 410.139L670.614 407.639L660.673 407.623L660.669 410.123L650.728 410.108L650.732 407.608L640.791 407.592L640.787 410.092L630.846 410.077L630.85 407.577L620.909 407.561L620.905 410.061L610.964 410.045L610.968 407.545L601.027 407.53L601.023 410.03L591.082 410.014L591.086 407.514L581.145 407.498L581.141 409.998L571.2 409.983L571.204 407.483L561.263 407.467L561.259 409.967L551.318 409.951L551.322 407.451L541.381 407.436L541.377 409.936L531.436 409.92L531.44 407.42L521.499 407.405L521.495 409.905L511.554 409.889L511.558 407.389L501.617 407.373L501.613 409.873L491.672 409.858L491.676 407.358L481.735 407.342L481.731 409.842L471.79 409.826L471.794 407.326L461.853 407.311L461.849 409.811L451.908 409.795L451.912 407.295L441.971 407.279L441.967 409.779L432.026 409.764L432.03 407.264L422.089 407.248L422.085 409.748L412.144 409.733L412.148 407.233L402.207 407.217L402.203 409.717L392.262 409.701L392.266 407.201L382.325 407.186L382.321 409.686L372.38 409.67L372.384 407.17L362.443 407.154L362.439 409.654L352.498 409.639L352.502 407.139L342.561 407.123L342.557 409.623L332.616 409.607L332.62 407.107L322.679 407.092L322.675 409.592L312.734 409.576L312.738 407.076L310.268 407.072L310.272 404.343L307.772 404.339L307.788 393.879L310.288 393.883L310.305 383.423L307.805 383.419L307.821 372.96L310.321 372.964L310.338 362.504L307.838 362.5L307.854 352.041L310.354 352.045L310.371 341.585L307.871 341.581L307.887 331.122L310.387 331.126L310.404 320.666L307.904 320.662L307.92 310.203L310.42 310.207L310.436 299.747L307.936 299.743L307.953 289.284L310.453 289.288L310.469 278.828L307.969 278.824L307.986 268.364L310.486 268.368L310.502 257.909L308.002 257.905L308.019 247.445L310.519 247.449L310.523 244.72L312.671 244.723L312.675 242.223L321.97 242.238L321.966 244.738L331.261 244.752L331.265 242.252L340.561 242.267L340.557 244.767L349.852 244.781L349.856 242.281L359.152 242.296L359.148 244.796L368.443 244.811L368.447 242.311L377.742 242.325L377.738 244.825L387.034 244.84L387.038 242.34L396.333 242.355L396.329 244.855L405.625 244.869L405.628 242.369L414.924 242.384L414.92 244.884L417.888 244.888C418.256 245.774 418.636 246.654 419.028 247.528L421.309 246.505Z" stroke="#FF5740" stroke-width="5" stroke-dasharray="10 10"/>
<mask id="path-2-inside-1_643_4473" fill="white">
<path fill-rule="evenodd" clip-rule="evenodd" d="M159.609 116.387C143.88 106.991 125.493 101.579 105.841 101.548C47.68 101.456 0.456839 148.531 0.365357 206.692C0.273875 264.853 47.3487 312.076 105.51 312.168C151.214 312.24 190.164 283.186 204.796 242.514L313.026 242.684L313.143 167.944L203.494 167.771C201.466 162.702 199.056 157.828 196.3 153.183C191.898 145.631 186.538 138.654 180.335 132.432C174.126 126.203 167.157 120.815 159.609 116.387Z"/>
</mask>
<path d="M159.609 116.387L158.326 118.533L158.335 118.539L158.344 118.544L159.609 116.387ZM204.796 242.514L204.8 240.014L203.04 240.011L202.444 241.668L204.796 242.514ZM313.026 242.684L313.022 245.184L315.522 245.188L315.526 242.688L313.026 242.684ZM313.143 167.944L315.643 167.948L315.647 165.448L313.147 165.444L313.143 167.944ZM203.494 167.771L201.172 168.7L201.8 170.269L203.49 170.271L203.494 167.771ZM196.3 153.183L194.14 154.442L194.145 154.451L194.15 154.459L196.3 153.183ZM180.335 132.432L182.106 130.667L182.106 130.667L180.335 132.432ZM105.837 104.048C107.377 104.05 108.909 104.086 110.431 104.156L110.659 99.1608C109.063 99.0882 107.458 99.0502 105.845 99.0477L105.837 104.048ZM119.578 104.979C122.635 105.393 125.649 105.94 128.613 106.615L129.724 101.74C126.614 101.032 123.453 100.458 120.248 100.025L119.578 104.979ZM137.465 109.056C140.39 110.006 143.257 111.083 146.06 112.282L148.026 107.684C145.085 106.427 142.077 105.297 139.009 104.3L137.465 109.056ZM154.332 116.267C155.682 116.993 157.014 117.749 158.326 118.533L160.891 114.241C159.514 113.419 158.118 112.626 156.702 111.864L154.332 116.267ZM158.344 118.544C160.187 119.625 161.995 120.765 163.765 121.962L166.566 117.821C164.708 116.564 162.809 115.367 160.874 114.231L158.344 118.544ZM173.897 129.805C175.497 131.217 177.054 132.681 178.565 134.197L182.106 130.667C180.52 129.076 178.885 127.538 177.204 126.055L173.897 129.805ZM178.565 134.197C180.074 135.711 181.532 137.271 182.937 138.873L186.697 135.577C185.222 133.894 183.691 132.257 182.106 130.667L178.565 134.197ZM190.741 149.017C191.931 150.788 193.065 152.598 194.14 154.442L198.46 151.925C197.331 149.988 196.141 148.088 194.891 146.228L190.741 149.017ZM194.15 154.459C194.825 155.597 195.479 156.749 196.111 157.915L200.507 155.531C199.844 154.309 199.158 153.101 198.449 151.907L194.15 154.459ZM199.626 165.04C200.164 166.248 200.68 167.468 201.172 168.7L205.815 166.843C205.298 165.551 204.757 164.271 204.192 163.004L199.626 165.04ZM203.49 170.271L208.972 170.28L208.98 165.28L203.498 165.271L203.49 170.271ZM219.937 170.297L230.902 170.314L230.91 165.314L219.945 165.297L219.937 170.297ZM241.867 170.332L252.832 170.349L252.84 165.349L241.875 165.332L241.867 170.332ZM263.797 170.366L274.762 170.383L274.77 165.383L263.805 165.366L263.797 170.366ZM285.727 170.401L296.692 170.418L296.7 165.418L285.735 165.401L285.727 170.401ZM307.657 170.435L313.139 170.444L313.147 165.444L307.665 165.435L307.657 170.435ZM310.643 167.94L310.636 172.611L315.636 172.619L315.643 167.948L310.643 167.94ZM310.621 181.954L310.607 191.296L315.607 191.304L315.621 181.962L310.621 181.954ZM310.592 200.639L310.577 209.981L315.577 209.989L315.592 200.647L310.592 200.639ZM310.563 219.324L310.548 228.667L315.548 228.674L315.563 219.332L310.563 219.324ZM310.533 238.009L310.526 242.68L315.526 242.688L315.533 238.017L310.533 238.009ZM313.03 240.184L307.618 240.176L307.61 245.176L313.022 245.184L313.03 240.184ZM296.795 240.159L285.972 240.142L285.964 245.142L296.787 245.159L296.795 240.159ZM275.149 240.125L264.326 240.108L264.319 245.108L275.142 245.125L275.149 240.125ZM253.503 240.091L242.681 240.074L242.673 245.074L253.496 245.091L253.503 240.091ZM231.858 240.057L221.035 240.04L221.027 245.04L231.85 245.057L231.858 240.057ZM210.212 240.023L204.8 240.014L204.792 245.014L210.204 245.023L210.212 240.023ZM202.444 241.668C201.849 243.321 201.213 244.954 200.537 246.567L205.149 248.5C205.858 246.808 206.525 245.095 207.149 243.36L202.444 241.668ZM195.984 256.036C194.3 259.121 192.464 262.109 190.484 264.992L194.605 267.823C196.681 264.8 198.607 261.666 200.373 258.431L195.984 256.036ZM184.099 273.342C181.83 276.015 179.427 278.572 176.9 281L180.364 284.605C183.013 282.06 185.533 279.38 187.912 276.577L184.099 273.342ZM168.961 287.888C166.204 290.044 163.335 292.062 160.363 293.933L163.026 298.164C166.142 296.203 169.151 294.087 172.041 291.826L168.961 287.888ZM151.194 299.068C148.065 300.616 144.847 302.009 141.548 303.237L143.293 307.923C146.753 306.634 150.129 305.173 153.411 303.55L151.194 299.068ZM131.527 306.391C128.159 307.264 124.724 307.969 121.232 308.499L121.982 313.443C125.645 312.887 129.248 312.147 132.781 311.232L131.527 306.391ZM110.774 309.544C109.032 309.629 107.278 309.671 105.514 309.668L105.506 314.668C107.354 314.671 109.192 314.627 111.018 314.538L110.774 309.544ZM105.514 309.668C103.821 309.665 102.138 309.622 100.465 309.538L100.216 314.532C101.969 314.619 103.732 314.665 105.506 314.668L105.514 309.668ZM90.4213 308.544C87.0673 308.046 83.7664 307.385 80.5269 306.57L79.3079 311.42C82.7062 312.274 86.1684 312.967 89.6859 313.49L90.4213 308.544ZM70.8766 303.63C67.6967 302.487 64.5894 301.191 61.5636 299.751L59.4156 304.266C62.5893 305.776 65.8487 307.135 69.1845 308.335L70.8766 303.63ZM52.6769 294.973C49.7893 293.233 46.9941 291.354 44.3005 289.347L41.3126 293.356C44.1367 295.46 47.0675 297.43 50.0956 299.256L52.6769 294.973ZM36.5131 282.928C34.0234 280.663 31.6453 278.277 29.3881 275.781L25.6791 279.134C28.0453 281.751 30.5383 284.252 33.1484 286.626L36.5131 282.928ZM22.9939 267.973C20.9949 265.273 19.1251 262.472 17.3936 259.579L13.1033 262.147C14.919 265.181 16.8796 268.118 18.9755 270.948L22.9939 267.973ZM12.6438 250.677C11.2139 247.647 9.92776 244.536 8.79416 241.352L4.08387 243.029C5.27305 246.369 6.62216 249.633 8.12199 252.811L12.6438 250.677ZM5.88418 231.693C5.08001 228.451 4.42972 225.148 3.94149 221.792L-1.00642 222.512C-0.494408 226.031 0.187674 229.495 1.03126 232.896L5.88418 231.693ZM2.97918 211.745C2.90094 210.072 2.86269 208.389 2.86535 206.696L-2.13464 206.688C-2.13743 208.462 -2.09736 210.226 -2.01537 211.979L2.97918 211.745ZM2.86535 206.696C2.86802 205.003 2.91156 203.32 2.99506 201.647L-1.99873 201.398C-2.08623 203.151 -2.13185 204.915 -2.13464 206.688L2.86535 206.696ZM3.98898 191.604C4.48775 188.25 5.14843 184.949 5.9628 181.709L1.11366 180.49C0.259379 183.888 -0.433568 187.351 -0.956649 190.868L3.98898 191.604ZM8.90315 172.059C10.0468 168.879 11.3427 165.772 12.7822 162.746L8.26703 160.598C6.75722 163.772 5.39784 167.031 4.19816 170.367L8.90315 172.059ZM17.5598 153.859C19.3005 150.972 21.1791 148.176 23.1866 145.483L19.1776 142.495C17.0728 145.319 15.103 148.25 13.2777 151.278L17.5598 153.859ZM29.6053 137.695C31.8704 135.206 34.2559 132.828 36.7528 130.57L33.3997 126.861C30.7822 129.228 28.2814 131.721 25.9068 134.331L29.6053 137.695ZM44.5603 124.176C47.2602 122.177 50.0613 120.307 52.9543 118.576L50.3866 114.286C47.3528 116.101 44.4157 118.062 41.585 120.158L44.5603 124.176ZM61.856 113.826C64.8864 112.396 67.9977 111.11 71.1812 109.976L69.5039 105.266C66.1644 106.455 62.9008 107.804 59.7223 109.304L61.856 113.826ZM80.8407 107.066C84.0827 106.262 87.3857 105.612 90.7413 105.124L90.0214 100.176C86.5023 100.688 83.0379 101.37 79.6369 102.214L80.8407 107.066ZM100.788 104.161C102.461 104.083 104.144 104.045 105.837 104.048L105.845 99.0477C104.072 99.0449 102.308 99.0849 100.555 99.1669L100.788 104.161ZM159.609 116.387L157.044 120.68L157.061 120.69L157.079 120.7L159.609 116.387ZM204.796 242.514L204.804 237.514L201.283 237.509L200.091 240.822L204.796 242.514ZM313.026 242.684L313.018 247.684L318.018 247.692L318.026 242.692L313.026 242.684ZM313.143 167.944L318.143 167.952L318.151 162.952L313.151 162.944L313.143 167.944ZM203.494 167.771L198.851 169.628L200.106 172.766L203.486 172.771L203.494 167.771ZM196.3 153.183L191.98 155.701L191.99 155.718L192 155.735L196.3 153.183ZM180.335 132.432L183.876 128.902L180.335 132.432ZM105.833 106.548C107.336 106.55 108.831 106.585 110.318 106.653L110.772 96.6634C109.14 96.5891 107.499 96.5502 105.849 96.5477L105.833 106.548ZM119.243 107.457C122.226 107.86 125.166 108.394 128.058 109.053L130.279 99.3028C127.097 98.5777 123.863 97.9903 120.583 97.547L119.243 107.457ZM136.692 111.433C139.546 112.36 142.343 113.411 145.077 114.581L149.009 105.386C146 104.099 142.921 102.942 139.781 101.923L136.692 111.433ZM153.148 118.468C154.464 119.177 155.764 119.914 157.044 120.68L162.173 112.095C160.764 111.254 159.336 110.442 157.887 109.663L153.148 118.468ZM157.079 120.7C158.876 121.754 160.639 122.866 162.365 124.033L167.967 115.75C166.064 114.463 164.12 113.237 162.139 112.075L157.079 120.7ZM172.243 131.68C173.803 133.056 175.321 134.484 176.794 135.962L183.876 128.902C182.252 127.273 180.579 125.698 178.858 124.181L172.243 131.68ZM176.794 135.962C178.266 137.438 179.687 138.959 181.057 140.521L188.577 133.929C187.066 132.206 185.499 130.529 183.876 128.902L176.794 135.962ZM188.666 150.411C189.826 152.138 190.932 153.903 191.98 155.701L200.62 150.666C199.464 148.683 198.245 146.738 196.966 144.833L188.666 150.411ZM192 155.735C192.659 156.846 193.297 157.97 193.914 159.107L202.704 154.339C202.026 153.088 201.324 151.852 200.599 150.631L192 155.735ZM197.342 166.058C197.867 167.236 198.371 168.426 198.851 169.628L208.136 165.914C207.607 164.592 207.054 163.283 206.476 161.986L197.342 166.058ZM203.486 172.771L208.968 172.78L208.984 162.78L203.501 162.771L203.486 172.771ZM219.933 172.797L230.898 172.814L230.914 162.814L219.949 162.797L219.933 172.797ZM241.863 172.832L252.828 172.849L252.844 162.849L241.879 162.832L241.863 172.832ZM263.793 172.866L274.758 172.883L274.774 162.883L263.809 162.866L263.793 172.866ZM285.723 172.901L296.688 172.918L296.704 162.918L285.739 162.901L285.723 172.901ZM307.653 172.935L313.136 172.944L313.151 162.944L307.669 162.935L307.653 172.935ZM308.143 167.936L308.136 172.607L318.136 172.623L318.143 167.952L308.143 167.936ZM308.121 181.95L308.107 191.292L318.107 191.308L318.121 181.965L308.121 181.95ZM308.092 200.635L308.077 209.977L318.077 209.993L318.092 200.651L308.092 200.635ZM308.063 219.32L308.048 228.663L318.048 228.678L318.063 219.336L308.063 219.32ZM308.033 238.005L308.026 242.677L318.026 242.692L318.033 238.021L308.033 238.005ZM313.034 237.684L307.622 237.676L307.606 247.676L313.018 247.684L313.034 237.684ZM296.799 237.659L285.976 237.642L285.961 247.642L296.784 247.659L296.799 237.659ZM275.153 237.625L264.33 237.608L264.315 247.608L275.138 247.625L275.153 237.625ZM253.507 237.591L242.684 237.574L242.669 247.574L253.492 247.591L253.507 237.591ZM231.861 237.557L221.039 237.54L221.023 247.54L231.846 247.557L231.861 237.557ZM210.216 237.523L204.804 237.514L204.788 247.514L210.2 247.523L210.216 237.523ZM200.091 240.822C199.511 242.434 198.891 244.028 198.232 245.601L207.454 249.466C208.18 247.735 208.863 245.981 209.501 244.207L200.091 240.822ZM193.789 254.839C192.147 257.848 190.355 260.764 188.423 263.577L196.666 269.238C198.79 266.146 200.761 262.939 202.567 259.629L193.789 254.839ZM182.193 271.724C179.979 274.333 177.634 276.828 175.168 279.197L182.096 286.408C184.807 283.804 187.384 281.062 189.818 278.194L182.193 271.724ZM167.42 285.919C164.73 288.023 161.931 289.992 159.031 291.817L164.358 300.28C167.546 298.273 170.624 296.108 173.581 293.796L167.42 285.919ZM150.086 296.827C147.033 298.337 143.893 299.696 140.676 300.894L144.165 310.266C147.706 308.947 151.161 307.452 154.519 305.791L150.086 296.827ZM130.9 303.971C127.615 304.822 124.264 305.511 120.857 306.028L122.357 315.914C126.105 315.346 129.792 314.588 133.407 313.652L130.9 303.971ZM110.652 307.047C108.952 307.13 107.24 307.171 105.518 307.168L105.502 317.168C107.392 317.171 109.272 317.126 111.14 317.035L110.652 307.047ZM105.518 307.168C103.865 307.165 102.222 307.123 100.59 307.041L100.091 317.029C101.884 317.118 103.688 317.165 105.502 317.168L105.518 307.168ZM90.7891 306.071C87.5167 305.585 84.2965 304.94 81.1364 304.146L78.6984 313.844C82.176 314.718 85.719 315.428 89.3182 315.963L90.7891 306.071ZM71.7226 301.278C68.6207 300.162 65.5895 298.898 62.6375 297.494L58.3416 306.524C61.5893 308.069 64.9247 309.46 68.3385 310.688L71.7226 301.278ZM53.9675 292.832C51.1501 291.134 48.4228 289.301 45.7944 287.342L39.8187 295.36C42.708 297.514 45.7067 299.529 48.805 301.397L53.9675 292.832ZM38.1955 281.079C35.7659 278.868 33.4453 276.54 31.2426 274.104L23.8245 280.81C26.2454 283.488 28.7958 286.046 31.466 288.476L38.1955 281.079ZM25.0032 266.485C23.0525 263.851 21.2281 261.118 19.5387 258.295L10.9581 263.431C12.816 266.535 14.822 269.54 16.9663 272.436L25.0032 266.485ZM14.9048 249.61C13.5098 246.654 12.2551 243.619 11.1493 240.513L1.72873 243.868C2.94571 247.286 4.32629 250.625 5.86106 253.878L14.9048 249.61ZM8.31066 231.091C7.52618 227.928 6.89178 224.706 6.41545 221.432L-3.48038 222.872C-2.95647 226.473 -2.25852 230.018 -1.39522 233.498L8.31066 231.091ZM5.47643 211.628C5.40011 209.996 5.36275 208.353 5.36535 206.7L-4.63464 206.684C-4.63749 208.498 -4.5965 210.302 -4.51266 212.095L5.47643 211.628ZM5.36535 206.7C5.36795 205.047 5.41048 203.404 5.49194 201.772L-4.49563 201.274C-4.58512 203.067 -4.63178 204.87 -4.63464 206.684L5.36535 206.7ZM6.46179 191.971C6.94838 188.699 7.59295 185.479 8.38738 182.319L-1.31089 179.881C-2.18513 183.358 -2.89423 186.901 -3.42946 190.5L6.46179 191.971ZM11.2556 172.905C12.3712 169.803 13.6354 166.772 15.0397 163.82L6.00947 159.524C4.46447 162.772 3.07336 166.107 1.84567 169.521L11.2556 172.905ZM19.7009 155.15C21.3992 152.332 23.2322 149.605 25.1911 146.977L17.173 141.001C15.0196 143.89 13.0042 146.889 11.1366 149.987L19.7009 155.15ZM31.4546 139.378C33.6649 136.948 35.9928 134.628 38.4293 132.425L31.7232 125.007C29.0453 127.428 26.4868 129.978 24.0576 132.648L31.4546 139.378ZM46.048 126.185C48.6825 124.235 51.4155 122.41 54.2382 120.721L49.1027 112.14C45.9985 113.998 42.9935 116.004 40.0974 118.149L46.048 126.185ZM62.9229 116.087C65.8792 114.692 68.9144 113.437 72.0199 112.332L68.6653 102.911C65.2477 104.128 61.9079 105.509 58.6554 107.043L62.9229 116.087ZM81.4426 109.493C84.6052 108.708 87.8273 108.074 91.1012 107.598L89.6615 97.7019C86.0606 98.2258 82.5155 98.9238 79.0351 99.7871L81.4426 109.493ZM100.905 106.659C102.538 106.582 104.181 106.545 105.833 106.548L105.849 96.5477C104.035 96.5448 102.231 96.5858 100.438 96.6696L100.905 106.659Z" fill="#FF5740" mask="url(#path-2-inside-1_643_4473)"/>
<path d="M308.171 83.8958L719.247 84.2935L718.856 489L307.779 488.602L307.939 323.04L417.762 323.147C426.453 345.126 442.67 363.427 463.611 374.885C484.552 386.342 508.901 390.237 532.449 385.896C555.997 381.555 577.265 369.251 592.575 351.111C607.886 332.97 616.278 310.133 616.301 286.547C616.324 262.961 607.976 240.108 592.7 221.938C577.425 203.768 556.181 191.423 532.642 187.037C509.102 182.65 484.746 186.498 463.783 197.915C442.819 209.332 426.567 227.601 417.834 249.564L308.011 249.457L308.171 83.8958Z" fill="#FF5740"/>
<path fill-rule="evenodd" clip-rule="evenodd" d="M159.091 198.664C143.518 189.365 125.313 184.015 105.857 183.996C48.3187 183.94 1.62922 230.539 1.57355 288.078C1.51788 345.617 48.1171 392.306 105.656 392.362C150.871 392.406 189.386 363.64 203.838 323.394L310.909 323.498L310.98 249.557L202.504 249.452C200.489 244.421 198.092 239.584 195.35 234.976C190.997 227.526 185.699 220.643 179.572 214.505C173.435 208.356 166.548 203.036 159.091 198.664Z" fill="#FF5740"/>
</svg>
