<svg width="227" height="397" viewBox="0 0 227 397" fill="none" xmlns="http://www.w3.org/2000/svg">
<g filter="url(#filter0_d_503_4930)">
<path d="M137.764 161.836C140.618 160.396 143.333 158.71 145.881 156.803L147.379 158.804C150.044 156.809 152.534 154.582 154.822 152.149L153 150.437C155.173 148.126 157.156 145.62 158.921 142.942L161.008 144.318C161.921 142.934 162.778 141.505 163.576 140.036C164.381 138.555 165.12 137.043 165.791 135.506L163.5 134.505C164.794 131.545 165.827 128.487 166.596 125.367L169.023 125.965C169.827 122.701 170.352 119.372 170.594 116.016L168.1 115.837C168.33 112.635 168.291 109.408 167.976 106.19L170.464 105.946C170.3 104.278 170.066 102.613 169.76 100.955C169.456 99.3028 169.082 97.6705 168.642 96.0619L166.231 96.7214C165.38 93.6122 164.271 90.5959 162.92 87.7033L165.185 86.6454C163.765 83.6055 162.09 80.6959 160.178 77.9498L158.126 79.3783C156.297 76.7506 154.241 74.2797 151.978 71.9974L153.753 70.237C152.576 69.0501 151.345 67.9117 150.062 66.8262C148.793 65.7515 147.482 64.7369 146.135 63.7838L144.691 65.8246C142.09 63.9837 139.346 62.3835 136.494 61.0364L137.562 58.7759C134.56 57.3577 131.442 56.2073 128.244 55.338L127.588 57.7505C124.538 56.9213 121.412 56.3598 118.244 56.0785L118.465 53.5883C116.819 53.4421 115.161 53.3683 113.498 53.3683C111.834 53.3683 110.177 53.4421 108.53 53.5883L108.751 56.0785C105.583 56.3598 102.457 56.9213 99.4072 57.7505L98.7514 55.338C95.5536 56.2073 92.4358 57.3577 89.4335 58.7759L90.5012 61.0364C87.6494 62.3835 84.906 63.9837 82.3044 65.8246L80.8603 63.7838C79.5134 64.7369 78.2031 65.7515 76.9334 66.8261C75.6509 67.9117 74.4199 69.0501 73.2428 70.237L75.0179 71.9974C72.7545 74.2797 70.699 76.7506 68.8695 79.3783L66.8178 77.9498C64.9058 80.6959 63.2306 83.6055 61.8108 86.6454L64.0759 87.7033C62.725 90.5959 61.6154 93.6122 60.765 96.7214L58.3536 96.0619C57.9136 97.6705 57.5401 99.3028 57.2354 100.955C56.9295 102.613 56.6953 104.278 56.5319 105.946L59.02 106.19C58.7049 109.408 58.6653 112.635 58.8956 115.837L56.402 116.016C56.6434 119.372 57.1689 122.701 57.9726 125.965L60.4001 125.367C61.1684 128.487 62.2021 131.545 63.4955 134.505L61.2046 135.506C61.8762 137.043 62.6148 138.555 63.4197 140.036C64.2178 141.505 65.0749 142.934 65.9877 144.318L68.0749 142.942C69.84 145.619 71.8223 148.125 73.9954 150.437L72.1741 152.149C74.4615 154.582 76.9517 156.809 79.6166 158.804L81.1149 156.803C83.663 158.71 86.3773 160.396 89.231 161.836L88.1047 164.068C89.084 164.562 90.0791 165.029 91.0889 165.467L91.0889 168.776L93.5889 168.776L93.5889 178.728L91.0889 178.728L91.0889 188.68L93.5889 188.68L93.5889 198.632L91.0889 198.632L91.0889 208.585L93.5889 208.585L93.5889 218.537L91.0889 218.537L91.0889 221.013L87.9896 221.013L87.9896 223.513L76.7909 223.513L76.7909 221.013L65.5922 221.013L65.5922 223.513L54.3935 223.513L54.3935 221.013L43.1948 221.013L43.1948 223.513L31.9961 223.513L31.9961 221.013L20.7974 221.013L20.7974 223.513L9.59869 223.513L9.59869 221.013L6.49934 221.013L6.49934 218.433L3.99934 218.433L3.99934 208.274L6.49934 208.274L6.49935 198.114L3.99935 198.114L3.99935 187.954L6.49935 187.954L6.49935 177.795L3.99935 177.795L3.99935 167.635L6.49935 167.635L6.49935 157.475L3.99935 157.475L3.99935 147.315L6.49935 147.315L6.49935 137.156L3.99935 137.156L3.99935 126.996L6.49935 126.996L6.49935 116.836L3.99935 116.836L3.99935 106.677L6.49935 106.677L6.49935 96.517L3.99935 96.517L3.99935 86.3573L6.49935 86.3573L6.49935 76.1976L3.99935 76.1976L3.99935 66.0379L6.49935 66.0379L6.49936 55.8782L3.99936 55.8782L3.99936 45.7185L6.49936 45.7185L6.49936 35.5588L3.99936 35.5588L3.99936 25.3991L6.49936 25.3991L6.49936 15.2394L3.99936 15.2394L3.99936 5.07971L6.49936 5.07971L6.49936 2.49986L8.97659 2.49986L8.97659 -0.000137056L18.931 -0.000136359L18.931 2.49986L28.8854 2.49986L28.8854 -0.000135662L38.8398 -0.000134965L38.8398 2.49987L48.7942 2.49987L48.7942 -0.000134268L58.7486 -0.000133571L58.7486 2.49987L68.7029 2.49987L68.7029 -0.000132874L78.6573 -0.000132177L78.6573 2.49987L88.6117 2.49987L88.6117 -0.00013148L98.5661 -0.000130783L98.5661 2.49987L108.521 2.49987L108.521 -0.000130086L118.475 -0.000129389L118.475 2.49987L128.429 2.49987L128.429 -0.000128692L138.384 -0.000127995L138.384 2.49987L148.338 2.49987L148.338 -0.000127298L158.293 -0.000126601L158.293 2.49987L168.247 2.49987L168.247 -0.000125904L178.201 -0.000125207L178.201 2.49987L188.156 2.49988L188.156 -0.00012451L198.11 -0.000123813L198.11 2.49988L208.065 2.49988L208.065 -0.000123116L218.019 -0.000122419L218.019 2.49988L220.496 2.49988L220.496 5.0797L222.996 5.0797L222.996 15.2394L220.496 15.2394L220.496 25.3991L222.996 25.3991L222.996 35.5588L220.496 35.5588L220.496 45.7185L222.996 45.7185L222.996 55.8782L220.496 55.8782L220.496 66.0379L222.996 66.0379L222.996 76.1976L220.496 76.1976L220.496 86.3573L222.996 86.3573L222.996 96.517L220.496 96.517L220.496 106.677L222.996 106.677L222.996 116.836L220.496 116.836L220.496 126.996L222.996 126.996L222.996 137.156L220.496 137.156L220.496 147.315L222.996 147.315L222.996 157.475L220.496 157.475L220.496 167.635L222.996 167.635L222.996 177.795L220.496 177.795L220.496 187.954L222.996 187.954L222.996 198.114L220.496 198.114L220.496 208.274L222.996 208.274L222.996 218.433L220.496 218.433L220.496 221.013L217.397 221.013L217.397 223.513L206.198 223.513L206.198 221.013L194.999 221.013L194.999 223.513L183.801 223.513L183.801 221.013L172.602 221.013L172.602 223.513L161.403 223.513L161.403 221.013L150.205 221.013L150.205 223.513L139.006 223.513L139.006 221.013L135.907 221.013L135.907 218.537L133.407 218.537L133.407 208.585L135.907 208.585L135.907 198.632L133.407 198.632L133.407 188.68L135.907 188.68L135.907 178.728L133.407 178.728L133.407 168.776L135.907 168.776L135.907 165.467C136.916 165.029 137.911 164.562 138.891 164.068L137.764 161.836Z" stroke="#FF5740" stroke-width="5" stroke-dasharray="10 10"/>
<mask id="path-2-inside-1_503_4930" fill="white">
<path fill-rule="evenodd" clip-rule="evenodd" d="M66.1058 303.182C61.1296 311.585 58.2732 321.392 58.2732 331.866C58.2732 363.002 83.5137 388.242 114.649 388.242C145.785 388.242 171.025 363.002 171.025 331.866C171.025 307.399 155.439 286.572 133.653 278.773L133.653 220.833L93.642 220.833L93.642 279.534C90.9768 280.605 88.4123 281.873 85.9666 283.322C81.8783 285.698 78.104 288.599 74.7433 291.96C71.383 295.32 68.4822 299.094 66.1058 303.182Z"/>
</mask>
<path d="M66.1058 303.182L68.257 304.456L68.2621 304.447L68.2672 304.438L66.1058 303.182ZM171.025 331.866L173.525 331.866L171.025 331.866ZM133.653 278.773L131.153 278.773L131.153 280.534L132.811 281.127L133.653 278.773ZM133.653 220.833L136.153 220.833L136.153 218.333L133.653 218.333L133.653 220.833ZM93.642 220.833L93.642 218.333L91.142 218.333L91.142 220.833L93.642 220.833ZM93.642 279.534L94.5741 281.854L96.142 281.224L96.142 279.534L93.642 279.534ZM85.9666 283.322L87.223 285.483L87.2317 285.478L87.2404 285.473L85.9666 283.322ZM74.7433 291.96L76.511 293.728L76.511 293.728L74.7433 291.96ZM60.7732 331.866C60.7732 330.658 60.813 329.459 60.8912 328.271L55.902 327.943C55.8166 329.24 55.7732 330.548 55.7732 331.866L60.7732 331.866ZM61.8386 321.149C62.3168 318.779 62.9505 316.466 63.7286 314.221L59.0041 312.584C58.1532 315.04 57.4602 317.569 56.9374 320.16L61.8386 321.149ZM66.5301 307.607C67.0714 306.536 67.6475 305.485 68.257 304.456L63.9547 301.908C63.2887 303.033 62.659 304.181 62.0673 305.353L66.5301 307.607ZM68.2672 304.438C68.8349 303.461 69.4341 302.504 70.0637 301.566L65.9125 298.779C65.2229 299.806 64.5665 300.855 63.9445 301.925L68.2672 304.438ZM74.1942 296.199C74.9386 295.352 75.7112 294.527 76.511 293.728L72.9755 290.192C72.0993 291.068 71.2529 291.971 70.4375 292.9L74.1942 296.199ZM76.511 293.728C77.311 292.928 78.1355 292.155 78.9831 291.411L75.6836 287.654C74.7551 288.469 73.8518 289.316 72.9755 290.192L76.511 293.728ZM84.3503 287.28C85.2881 286.65 86.2462 286.051 87.223 285.483L84.7103 281.16C83.6402 281.782 82.5907 282.439 81.5633 283.128L84.3503 287.28ZM87.2404 285.473C87.8269 285.125 88.4205 284.789 89.021 284.464L86.6389 280.068C85.9826 280.423 85.3338 280.791 84.6929 281.17L87.2404 285.473ZM92.6904 282.653C93.3122 282.375 93.9402 282.108 94.5741 281.854L92.71 277.214C92.0168 277.493 91.3301 277.784 90.6503 278.088L92.6904 282.653ZM96.142 279.534L96.142 274.642L91.142 274.642L91.142 279.534L96.142 279.534ZM96.142 264.859L96.142 255.075L91.142 255.075L91.142 264.859L96.142 264.859ZM96.142 245.292L96.142 235.509L91.142 235.509L91.142 245.292L96.142 245.292ZM96.142 225.725L96.142 220.833L91.142 220.833L91.142 225.725L96.142 225.725ZM93.642 223.333L98.6434 223.333L98.6434 218.333L93.642 218.333L93.642 223.333ZM108.646 223.333L118.649 223.333L118.649 218.333L108.646 218.333L108.646 223.333ZM128.652 223.333L133.653 223.333L133.653 218.333L128.652 218.333L128.652 223.333ZM131.153 220.833L131.153 225.662L136.153 225.662L136.153 220.833L131.153 220.833ZM131.153 235.318L131.153 244.975L136.153 244.975L136.153 235.318L131.153 235.318ZM131.153 254.632L131.153 264.288L136.153 264.288L136.153 254.632L131.153 254.632ZM131.153 273.945L131.153 278.773L136.153 278.773L136.153 273.945L131.153 273.945ZM132.811 281.127C134.547 281.749 136.243 282.457 137.893 283.247L140.052 278.738C138.249 277.874 136.395 277.099 134.496 276.42L132.811 281.127ZM147.275 288.988C150.201 291.218 152.892 293.741 155.305 296.512L159.076 293.23C156.441 290.203 153.502 287.448 150.306 285.012L147.275 288.988ZM161.646 305.503C163.433 308.68 164.906 312.057 166.024 315.591L170.791 314.082C169.568 310.217 167.957 306.525 166.004 303.052L161.646 305.503ZM168.248 326.36C168.431 328.17 168.525 330.007 168.525 331.866L173.525 331.866C173.525 329.838 173.423 327.833 173.222 325.856L168.248 326.36ZM168.525 331.866C168.525 333.65 168.439 335.413 168.27 337.152L173.246 337.636C173.431 335.737 173.525 333.812 173.525 331.866L168.525 331.866ZM166.219 347.512C165.187 350.918 163.827 354.181 162.175 357.266L166.582 359.627C168.388 356.255 169.876 352.687 171.004 348.962L166.219 347.512ZM156.299 366.044C154.058 368.771 151.555 371.275 148.827 373.515L152.002 377.379C154.98 374.931 157.714 372.197 160.162 369.218L156.299 366.044ZM140.049 379.392C136.965 381.044 133.701 382.404 130.295 383.436L131.745 388.221C135.47 387.093 139.038 385.605 142.41 383.799L140.049 379.392ZM119.935 385.486C118.197 385.656 116.434 385.742 114.649 385.742L114.649 390.742C116.595 390.742 118.52 390.648 120.419 390.463L119.935 385.486ZM114.649 385.742C112.865 385.742 111.102 385.655 109.364 385.486L108.879 390.463C110.778 390.648 112.703 390.742 114.649 390.742L114.649 385.742ZM99.0035 383.436C95.5976 382.404 92.334 381.044 89.2495 379.392L86.8887 383.799C90.2604 385.605 93.8289 387.093 97.5538 388.221L99.0035 383.436ZM80.4712 373.515C77.744 371.275 75.2407 368.771 73 366.044L69.1367 369.218C71.5841 372.197 74.3183 374.931 77.2971 377.379L80.4712 373.515ZM67.1238 357.266C65.4717 354.181 64.1114 350.918 63.0795 347.512L58.2943 348.962C59.4228 352.687 60.9103 356.255 62.7162 359.627L67.1238 357.266ZM61.0291 337.152C60.8599 335.413 60.7732 333.65 60.7732 331.866L55.7732 331.866C55.7732 333.812 55.8677 335.737 56.0526 337.636L61.0291 337.152ZM66.1058 303.182L70.4081 305.729L70.4184 305.712L70.4285 305.695L66.1058 303.182ZM171.025 331.866L176.025 331.866L171.025 331.866ZM133.653 278.773L128.653 278.773L128.653 282.294L131.968 283.481L133.653 278.773ZM133.653 220.833L138.653 220.833L138.653 215.833L133.653 215.833L133.653 220.833ZM93.642 220.833L93.642 215.833L88.642 215.833L88.642 220.833L93.642 220.833ZM93.642 279.534L95.5062 284.174L98.642 282.914L98.642 279.534L93.642 279.534ZM85.9666 283.322L88.4794 287.644L88.4968 287.634L88.5142 287.624L85.9666 283.322ZM74.7433 291.96L78.2788 295.495L78.2788 295.495L74.7433 291.96ZM63.2732 331.866C63.2732 330.713 63.3112 329.569 63.3858 328.435L53.4074 327.778C53.3184 329.13 53.2732 330.493 53.2732 331.866L63.2732 331.866ZM64.2892 321.644C64.7451 319.385 65.3491 317.18 66.0908 315.039L56.6419 311.765C55.7545 314.326 55.032 316.964 54.4868 319.666L64.2892 321.644ZM68.7615 308.735C69.2777 307.713 69.827 306.711 70.4081 305.729L61.8036 300.634C61.1093 301.806 60.4528 303.004 59.8358 304.225L68.7615 308.735ZM70.4285 305.695C70.9692 304.765 71.5397 303.852 72.1392 302.959L63.837 297.385C63.1173 298.457 62.4323 299.552 61.7832 300.669L70.4285 305.695ZM76.0726 297.849C76.7814 297.042 77.5171 296.257 78.2788 295.495L71.2077 288.424C70.2933 289.339 69.4101 290.281 68.5591 291.25L76.0726 297.849ZM78.2788 295.495C79.0406 294.734 79.8257 293.998 80.6329 293.289L74.0339 285.775C73.0649 286.626 72.1223 287.51 71.2077 288.424L78.2788 295.495ZM85.7438 289.355C86.6369 288.756 87.5492 288.185 88.4794 287.644L83.4539 278.999C82.3372 279.648 81.2419 280.333 80.1698 281.053L85.7438 289.355ZM88.5142 287.624C89.0734 287.293 89.6394 286.972 90.212 286.662L85.4479 277.869C84.7636 278.24 84.0873 278.624 83.4191 279.019L88.5142 287.624ZM93.7104 284.935C94.3032 284.67 94.9018 284.416 95.5062 284.174L91.7779 274.895C91.0551 275.185 90.3391 275.489 89.6303 275.805L93.7104 284.935ZM98.642 279.534L98.642 274.642L88.642 274.642L88.642 279.534L98.642 279.534ZM98.642 264.859L98.642 255.075L88.642 255.075L88.642 264.859L98.642 264.859ZM98.642 245.292L98.642 235.509L88.642 235.509L88.642 245.292L98.642 245.292ZM98.642 225.725L98.642 220.833L88.642 220.833L88.642 225.725L98.642 225.725ZM93.642 225.833L98.6434 225.833L98.6434 215.833L93.642 215.833L93.642 225.833ZM108.646 225.833L118.649 225.833L118.649 215.833L108.646 215.833L108.646 225.833ZM128.652 225.833L133.653 225.833L133.653 215.833L128.652 215.833L128.652 225.833ZM128.653 220.833L128.653 225.662L138.653 225.662L138.653 220.833L128.653 220.833ZM128.653 235.318L128.653 244.975L138.653 244.975L138.653 235.318L128.653 235.318ZM128.653 254.632L128.653 264.288L138.653 264.288L138.653 254.632L128.653 254.632ZM128.653 273.945L128.653 278.773L138.653 278.773L138.653 273.945L128.653 273.945ZM131.968 283.481C133.624 284.073 135.24 284.749 136.813 285.502L141.132 276.483C139.252 275.583 137.319 274.775 135.338 274.066L131.968 283.481ZM145.76 290.977C148.551 293.104 151.118 295.51 153.419 298.154L160.962 291.589C158.216 288.434 155.153 285.562 151.822 283.023L145.76 290.977ZM159.467 306.728C161.17 309.758 162.575 312.977 163.641 316.345L173.175 313.328C171.899 309.297 170.219 305.448 168.184 301.827L159.467 306.728ZM165.76 326.613C165.936 328.339 166.025 330.091 166.025 331.866L176.025 331.866C176.025 329.753 175.918 327.664 175.709 325.604L165.76 326.613ZM166.025 331.866C166.025 333.569 165.943 335.252 165.781 336.91L175.734 337.878C175.927 335.899 176.025 333.893 176.025 331.866L166.025 331.866ZM163.827 346.787C162.843 350.033 161.546 353.145 159.971 356.086L168.786 360.807C170.669 357.292 172.22 353.571 173.397 349.687L163.827 346.787ZM154.367 364.457C152.23 367.058 149.842 369.446 147.24 371.584L153.589 379.31C156.693 376.76 159.543 373.91 162.094 370.805L154.367 364.457ZM138.869 377.188C135.928 378.763 132.817 380.06 129.57 381.043L132.47 390.614C136.354 389.437 140.075 387.886 143.59 386.003L138.869 377.188ZM119.693 382.998C118.035 383.159 116.353 383.242 114.649 383.242L114.649 393.242C116.676 393.242 118.682 393.144 120.662 392.951L119.693 382.998ZM114.649 383.242C112.946 383.242 111.264 383.159 109.606 382.998L108.637 392.951C110.616 393.144 112.622 393.242 114.649 393.242L114.649 383.242ZM99.7284 381.043C96.482 380.06 93.3708 378.763 90.4299 377.188L85.7083 386.003C89.2236 387.886 92.9445 389.437 96.8289 390.614L99.7284 381.043ZM82.0583 371.584C79.4569 369.446 77.069 367.058 74.9316 364.457L67.2051 370.805C69.7559 373.91 72.6054 376.76 75.71 379.31L82.0583 371.584ZM69.3276 356.086C67.7524 353.145 66.4557 350.033 65.4721 346.787L55.9017 349.687C57.0785 353.571 58.6296 357.292 60.5125 360.807L69.3276 356.086ZM63.5173 336.91C63.3559 335.252 63.2732 333.569 63.2732 331.866L53.2732 331.866C53.2732 333.893 53.3717 335.899 53.5643 337.878L63.5173 336.91Z" fill="#FF5740" mask="url(#path-2-inside-1_503_4930)"/>
</g>
<defs>
<filter id="filter0_d_503_4930" x="-0.000976562" y="0" width="226.997" height="396.242" filterUnits="userSpaceOnUse" color-interpolation-filters="sRGB">
<feFlood flood-opacity="0" result="BackgroundImageFix"/>
<feColorMatrix in="SourceAlpha" type="matrix" values="0 0 0 0 0 0 0 0 0 0 0 0 0 0 0 0 0 0 127 0" result="hardAlpha"/>
<feOffset dy="4"/>
<feGaussianBlur stdDeviation="2"/>
<feComposite in2="hardAlpha" operator="out"/>
<feColorMatrix type="matrix" values="0 0 0 0 0 0 0 0 0 0 0 0 0 0 0 0 0 0 0.25 0"/>
<feBlend mode="normal" in2="BackgroundImageFix" result="effect1_dropShadow_503_4930"/>
<feBlend mode="normal" in="SourceGraphic" in2="effect1_dropShadow_503_4930" result="shape"/>
</filter>
</defs>
</svg>
