<svg width="227" height="397" viewBox="0 0 227 397" fill="none" xmlns="http://www.w3.org/2000/svg">
<g filter="url(#filter0_d_503_4925)">
<path d="M89.2316 226.406C86.378 227.846 83.6636 229.532 81.1155 231.44L79.6172 229.438C76.9523 231.434 74.462 233.66 72.1746 236.093L73.9959 237.806C71.8227 240.117 69.8404 242.623 68.0753 245.3L65.9881 243.924C65.0752 245.308 64.2181 246.737 63.4201 248.206C62.6151 249.687 61.8765 251.199 61.205 252.736L63.4958 253.737C62.2024 256.697 61.1688 259.755 60.4004 262.875L57.973 262.277C57.1692 265.541 56.6438 268.87 56.4024 272.226L58.8959 272.405C58.6656 275.607 58.7052 278.835 59.0204 282.053L56.5323 282.296C56.6956 283.964 56.9299 285.629 57.2357 287.287C57.5405 288.939 57.9139 290.572 58.3539 292.18L60.7654 291.521C61.6157 294.63 62.7253 297.646 64.0763 300.539L61.8111 301.597C63.2309 304.637 64.9062 307.546 66.8181 310.292L68.8698 308.864C70.6993 311.492 72.7549 313.962 75.0182 316.245L73.2431 318.005C74.4202 319.192 75.6512 320.33 76.9338 321.416C78.2034 322.491 79.5138 323.505 80.8607 324.458L82.3047 322.418C84.9064 324.259 87.6498 325.859 90.5017 327.206L89.4339 329.466C92.4363 330.885 95.5541 332.035 98.7519 332.904L99.4077 330.492C102.458 331.321 105.584 331.882 108.752 332.164L108.531 334.654C110.177 334.8 111.835 334.874 113.498 334.874C115.162 334.874 116.819 334.8 118.466 334.654L118.245 332.164C121.413 331.882 124.539 331.321 127.589 330.492L128.245 332.904C131.442 332.035 134.56 330.885 137.563 329.466L136.495 327.206C139.347 325.859 142.09 324.259 144.692 322.418L146.136 324.458C147.483 323.505 148.793 322.491 150.063 321.416C151.345 320.33 152.576 319.192 153.753 318.005L151.978 316.245C154.242 313.962 156.297 311.492 158.127 308.864L160.178 310.292C162.09 307.546 163.766 304.637 165.185 301.597L162.92 300.539C164.271 297.646 165.381 294.63 166.231 291.521L168.643 292.18C169.083 290.572 169.456 288.939 169.761 287.287C170.067 285.629 170.301 283.964 170.464 282.296L167.976 282.053C168.291 278.835 168.331 275.607 168.101 272.405L170.594 272.226C170.353 268.87 169.827 265.541 169.024 262.277L166.596 262.875C165.828 259.755 164.794 256.697 163.501 253.737L165.791 252.736C165.12 251.199 164.381 249.687 163.576 248.206C162.778 246.737 161.921 245.308 161.008 243.924L158.921 245.3C157.156 242.623 155.174 240.117 153.001 237.806L154.822 236.093C152.535 233.66 150.044 231.434 147.38 229.438L145.881 231.44C143.333 229.532 140.619 227.846 137.765 226.406L138.891 224.174C137.912 223.68 136.917 223.213 135.907 222.775L135.907 219.467L133.407 219.467L133.407 209.514L135.907 209.514L135.907 199.562L133.407 199.562L133.407 189.61L135.907 189.61L135.907 179.657L133.407 179.657L133.407 169.705L135.907 169.705L135.907 167.229L139.007 167.229L139.007 164.729L150.205 164.729L150.205 167.229L161.404 167.229L161.404 164.729L172.603 164.729L172.603 167.229L183.801 167.229L183.801 164.729L195 164.729L195 167.229L206.199 167.229L206.199 164.729L217.397 164.729L217.397 167.229L220.497 167.229L220.497 169.809L222.997 169.809L222.997 179.969L220.497 179.969L220.497 190.128L222.997 190.128L222.997 200.288L220.497 200.288L220.497 210.448L222.997 210.448L222.997 220.607L220.497 220.607L220.497 230.767L222.997 230.767L222.997 240.927L220.497 240.927L220.497 251.086L222.997 251.086L222.997 261.246L220.497 261.246L220.497 271.406L222.997 271.406L222.997 281.565L220.497 281.565L220.497 291.725L222.997 291.725L222.997 301.885L220.497 301.885L220.497 312.045L222.997 312.045L222.997 322.204L220.497 322.204L220.497 332.364L222.997 332.364L222.997 342.524L220.497 342.524L220.497 352.683L222.997 352.683L222.997 362.843L220.497 362.843L220.497 373.003L222.997 373.003L222.997 383.162L220.497 383.162L220.497 385.742L218.02 385.742L218.02 388.242L208.065 388.242L208.065 385.742L198.111 385.742L198.111 388.242L188.156 388.242L188.156 385.742L178.202 385.742L178.202 388.242L168.248 388.242L168.248 385.742L158.293 385.742L158.293 388.242L148.339 388.242L148.339 385.742L138.384 385.742L138.384 388.242L128.43 388.242L128.43 385.742L118.476 385.742L118.476 388.242L108.521 388.242L108.521 385.742L98.5668 385.742L98.5668 388.242L88.6124 388.242L88.6124 385.742L78.658 385.742L78.658 388.242L68.7036 388.242L68.7036 385.742L58.7492 385.742L58.7492 388.242L48.7948 388.242L48.7948 385.742L38.8404 385.742L38.8404 388.242L28.886 388.242L28.886 385.742L18.9316 385.742L18.9316 388.242L8.9772 388.242L8.9772 385.742L6.5 385.742L6.5 383.162L4 383.162L4 373.003L6.5 373.003L6.5 362.843L4 362.843L4 352.683L6.5 352.683L6.5 342.524L4 342.524L4 332.364L6.5 332.364L6.5 322.204L4 322.204L4 312.045L6.5 312.045L6.5 301.885L4 301.885L4 291.725L6.5 291.725L6.5 281.566L4 281.566L4 271.406L6.5 271.406L6.5 261.246L4 261.246L4 251.086L6.5 251.086L6.5 240.927L4 240.927L4 230.767L6.5 230.767L6.5 220.607L4 220.607L4 210.448L6.5 210.448L6.5 200.288L4 200.288L4 190.128L6.5 190.128L6.5 179.969L4 179.969L4 169.809L6.5 169.809L6.5 167.229L9.59934 167.229L9.59934 164.729L20.798 164.729L20.798 167.229L31.9967 167.229L31.9967 164.729L43.1954 164.729L43.1954 167.229L54.3941 167.229L54.3941 164.729L65.5928 164.729L65.5928 167.229L76.7915 167.229L76.7915 164.729L87.9902 164.729L87.9902 167.229L91.0896 167.229L91.0896 169.705L93.5896 169.705L93.5896 179.657L91.0896 179.657L91.0896 189.61L93.5896 189.61L93.5896 199.562L91.0896 199.562L91.0896 209.514L93.5896 209.514L93.5896 219.467L91.0896 219.467L91.0896 222.775C90.0798 223.213 89.0847 223.68 88.1053 224.174L89.2316 226.406Z" stroke="#FF5740" stroke-width="5" stroke-dasharray="10 10"/>
<mask id="path-2-inside-1_503_4925" fill="white">
<path fill-rule="evenodd" clip-rule="evenodd" d="M160.89 85.0605C165.866 76.6571 168.723 66.8502 168.723 56.3761C168.723 25.2405 143.482 4.19511e-05 112.347 4.33121e-05C81.2111 4.46731e-05 55.9707 25.2405 55.9707 56.3761C55.9707 80.8434 71.5573 101.67 93.3428 109.469L93.3428 167.409L133.354 167.409L133.354 108.708C136.019 107.637 138.584 106.369 141.029 104.921C145.118 102.544 148.892 99.6431 152.253 96.2823C155.613 92.9221 158.514 89.1482 160.89 85.0605Z"/>
</mask>
<path d="M160.89 85.0605L158.739 83.7866L158.734 83.7953L158.729 83.804L160.89 85.0605ZM55.9707 56.3761L53.4707 56.3761L55.9707 56.3761ZM93.3428 109.469L95.8428 109.469L95.8428 107.708L94.1854 107.115L93.3428 109.469ZM93.3428 167.409L90.8428 167.409L90.8428 169.909L93.3428 169.909L93.3428 167.409ZM133.354 167.409L133.354 169.909L135.854 169.909L135.854 167.409L133.354 167.409ZM133.354 108.708L132.422 106.388L130.854 107.018L130.854 108.708L133.354 108.708ZM141.029 104.921L139.773 102.759L139.764 102.764L139.756 102.769L141.029 104.921ZM152.253 96.2823L150.485 94.5146L150.485 94.5146L152.253 96.2823ZM166.223 56.3761C166.223 57.5845 166.183 58.7832 166.105 59.9711L171.094 60.2995C171.179 59.0024 171.223 57.6941 171.223 56.3761L166.223 56.3761ZM165.157 67.093C164.679 69.4627 164.046 71.7759 163.268 74.0216L167.992 75.6585C168.843 73.2026 169.536 70.673 170.059 68.0819L165.157 67.093ZM160.466 80.6349C159.925 81.7064 159.349 82.7575 158.739 83.7866L163.041 86.3343C163.707 85.2096 164.337 84.0608 164.929 82.8894L160.466 80.6349ZM158.729 83.804C158.161 84.7807 157.562 85.7386 156.932 86.6763L161.084 89.4634C161.773 88.4362 162.43 87.3869 163.052 86.3169L158.729 83.804ZM152.802 92.0428C152.057 92.8903 151.285 93.7147 150.485 94.5146L154.021 98.0501C154.897 97.1739 155.743 96.2707 156.559 95.3423L152.802 92.0428ZM150.485 94.5146C149.685 95.3145 148.861 96.0872 148.013 96.8317L151.312 100.588C152.241 99.7729 153.144 98.9264 154.021 98.0501L150.485 94.5146ZM142.646 100.963C141.708 101.592 140.75 102.191 139.773 102.759L142.286 107.082C143.356 106.46 144.405 105.804 145.433 105.114L142.646 100.963ZM139.756 102.769C139.169 103.117 138.576 103.453 137.975 103.778L140.357 108.175C141.013 107.819 141.662 107.451 142.303 107.072L139.756 102.769ZM134.306 105.589C133.684 105.867 133.056 106.134 132.422 106.388L134.286 111.028C134.979 110.749 135.666 110.458 136.346 110.154L134.306 105.589ZM130.854 108.708L130.854 113.6L135.854 113.6L135.854 108.708L130.854 108.708ZM130.854 123.383L130.854 133.167L135.854 133.167L135.854 123.383L130.854 123.383ZM130.854 142.95L130.854 152.734L135.854 152.734L135.854 142.95L130.854 142.95ZM130.854 162.517L130.854 167.409L135.854 167.409L135.854 162.517L130.854 162.517ZM133.354 164.909L128.353 164.909L128.353 169.909L133.354 169.909L133.354 164.909ZM118.35 164.909L108.347 164.909L108.347 169.909L118.35 169.909L118.35 164.909ZM98.3442 164.909L93.3428 164.909L93.3428 169.909L98.3442 169.909L98.3442 164.909ZM95.8428 167.409L95.8428 162.58L90.8428 162.58L90.8428 167.409L95.8428 167.409ZM95.8428 152.924L95.8428 143.267L90.8428 143.267L90.8428 152.924L95.8428 152.924ZM95.8428 133.61L95.8428 123.954L90.8428 123.954L90.8428 133.61L95.8428 133.61ZM95.8428 114.297L95.8428 109.469L90.8428 109.469L90.8428 114.297L95.8428 114.297ZM94.1854 107.115C92.4486 106.493 90.7529 105.785 89.1035 104.995L86.9436 109.504C88.7468 110.368 90.6009 111.143 92.5003 111.823L94.1854 107.115ZM79.7206 99.2537C76.7949 97.0239 74.1039 94.5013 71.6916 91.7297L67.9201 95.0123C70.5548 98.0395 73.4938 100.795 76.6899 103.23L79.7206 99.2537ZM65.3501 82.7394C63.5636 79.5618 62.0904 76.1853 60.972 72.6516L56.205 74.1603C57.4282 78.025 59.039 81.7167 60.9917 85.1898L65.3501 82.7394ZM58.7484 61.8817C58.5648 60.0722 58.4707 58.2356 58.4707 56.3761L53.4707 56.3761C53.4707 58.4044 53.5734 60.4095 53.7739 62.3863L58.7484 61.8817ZM58.4707 56.3761C58.4707 54.5919 58.5573 52.8287 58.7265 51.0903L53.75 50.606C53.5652 52.5051 53.4707 54.4299 53.4707 56.3761L58.4707 56.3761ZM60.7769 40.7304C61.8088 37.3244 63.1691 34.0608 64.8213 30.9763L60.4137 28.6155C58.6078 31.9872 57.1203 35.5557 55.9917 39.2806L60.7769 40.7304ZM70.6974 22.198C72.9382 19.4708 75.4415 16.9675 78.1687 14.7268L74.9945 10.8635C72.0158 13.311 69.2816 16.0451 66.8342 19.0239L70.6974 22.198ZM86.9469 8.85063C90.0315 7.1985 93.2951 5.83818 96.701 4.80629L95.2512 0.0210859C91.5263 1.14963 87.9578 2.63713 84.5862 4.44305L86.9469 8.85063ZM107.061 2.75587C108.799 2.58668 110.563 2.50004 112.347 2.50004L112.347 -2.49996C110.401 -2.49996 108.476 -2.40544 106.577 -2.22063L107.061 2.75587ZM112.347 2.50004C114.131 2.50004 115.894 2.58668 117.633 2.75587L118.117 -2.22063C116.218 -2.40544 114.293 -2.49996 112.347 -2.49996L112.347 2.50004ZM127.993 4.80629C131.398 5.83818 134.662 7.19848 137.747 8.85063L140.107 4.44305C136.736 2.63711 133.167 1.14962 129.442 0.0210844L127.993 4.80629ZM146.525 14.7268C149.252 16.9675 151.755 19.4708 153.996 22.198L157.859 19.0239C155.412 16.0451 152.678 13.311 149.699 10.8635L146.525 14.7268ZM159.872 30.9763C161.524 34.0608 162.885 37.3244 163.917 40.7303L168.702 39.2806C167.573 35.5557 166.086 31.9872 164.28 28.6155L159.872 30.9763ZM165.967 51.0903C166.136 52.8287 166.223 54.5919 166.223 56.3761L171.223 56.3761C171.223 54.4299 171.128 52.5051 170.944 50.606L165.967 51.0903ZM160.89 85.0605L156.588 82.5128L156.578 82.5301L156.568 82.5476L160.89 85.0605ZM55.9707 56.3761L50.9707 56.3761L55.9707 56.3761ZM93.3428 109.469L98.3428 109.469L98.3428 105.948L95.028 104.761L93.3428 109.469ZM93.3428 167.409L88.3428 167.409L88.3428 172.409L93.3428 172.409L93.3428 167.409ZM133.354 167.409L133.354 172.409L138.354 172.409L138.354 167.409L133.354 167.409ZM133.354 108.708L131.49 104.069L128.354 105.329L128.354 108.708L133.354 108.708ZM141.029 104.921L138.517 100.598L138.499 100.608L138.482 100.618L141.029 104.921ZM152.253 96.2823L148.717 92.7468L148.717 92.7468L152.253 96.2823ZM163.723 56.3761C163.723 57.5297 163.685 58.6736 163.61 59.8068L173.589 60.4638C173.678 59.112 173.723 57.749 173.723 56.3761L163.723 56.3761ZM162.707 66.5985C162.251 68.8576 161.647 71.0626 160.905 73.2032L170.354 76.477C171.242 73.9159 171.964 71.2781 172.509 68.5764L162.707 66.5985ZM158.235 79.5076C157.718 80.5293 157.169 81.5315 156.588 82.5128L165.192 87.6081C165.887 86.4357 166.543 85.238 167.16 84.0167L158.235 79.5076ZM156.568 82.5476C156.027 83.4776 155.456 84.3898 154.857 85.2827L163.159 90.857C163.879 89.785 164.564 88.6899 165.213 87.5734L156.568 82.5476ZM150.923 90.393C150.215 91.2001 149.479 91.9851 148.717 92.7468L155.788 99.8179C156.703 98.9035 157.586 97.961 158.437 96.9921L150.923 90.393ZM148.717 92.7468C147.955 93.5086 147.17 94.2444 146.363 94.9533L152.962 102.467C153.931 101.616 154.874 100.732 155.788 99.8179L148.717 92.7468ZM141.252 98.887C140.359 99.4865 139.447 100.057 138.517 100.598L143.542 109.243C144.659 108.594 145.754 107.909 146.826 107.189L141.252 98.887ZM138.482 100.618C137.923 100.949 137.357 101.27 136.784 101.58L141.548 110.373C142.232 110.002 142.909 109.619 143.577 109.223L138.482 100.618ZM133.286 103.307C132.693 103.572 132.094 103.826 131.49 104.069L135.218 113.348C135.941 113.057 136.657 112.753 137.366 112.437L133.286 103.307ZM128.354 108.708L128.354 113.6L138.354 113.6L138.354 108.708L128.354 108.708ZM128.354 123.383L128.354 133.167L138.354 133.167L138.354 123.383L128.354 123.383ZM128.354 142.95L128.354 152.734L138.354 152.734L138.354 142.95L128.354 142.95ZM128.354 162.517L128.354 167.409L138.354 167.409L138.354 162.517L128.354 162.517ZM133.354 162.409L128.353 162.409L128.353 172.409L133.354 172.409L133.354 162.409ZM118.35 162.409L108.347 162.409L108.347 172.409L118.35 172.409L118.35 162.409ZM98.3442 162.409L93.3428 162.409L93.3428 172.409L98.3442 172.409L98.3442 162.409ZM98.3428 167.409L98.3428 162.58L88.3428 162.58L88.3428 167.409L98.3428 167.409ZM98.3428 152.924L98.3428 143.267L88.3428 143.267L88.3428 152.924L98.3428 152.924ZM98.3428 133.61L98.3428 123.954L88.3428 123.954L88.3428 133.61L98.3428 133.61ZM98.3428 114.297L98.3428 109.469L88.3428 109.469L88.3428 114.297L98.3428 114.297ZM95.028 104.761C93.3724 104.169 91.7559 103.493 90.1834 102.74L85.8636 111.759C87.7437 112.66 89.6771 113.467 91.6577 114.176L95.028 104.761ZM81.236 97.2654C78.4454 95.1385 75.8784 92.7322 73.5773 90.0884L66.0343 96.6536C68.7802 99.8085 71.8433 102.68 75.1745 105.219L81.236 97.2654ZM67.5293 81.5142C65.8258 78.4844 64.4215 75.2655 63.3554 71.8972L53.8215 74.9146C55.0971 78.9448 56.7768 82.7942 58.8125 86.415L67.5293 81.5142ZM61.2356 61.6294C61.0605 59.9036 60.9707 58.1512 60.9707 56.3761L50.9707 56.3761C50.9707 58.4888 51.0776 60.5781 51.2867 62.6386L61.2356 61.6294ZM60.9707 56.3761C60.9707 54.6729 61.0534 52.9905 61.2148 51.3325L51.2618 50.3638C51.0691 52.3433 50.9707 54.349 50.9707 56.3761L60.9707 56.3761ZM63.1695 41.4552C64.1531 38.2088 65.4498 35.0977 67.0251 32.1567L58.2099 27.4351C56.3271 30.9504 54.776 34.6713 53.5991 38.5557L63.1695 41.4552ZM72.6291 23.7851C74.7664 21.1837 77.1544 18.7958 79.7557 16.6584L73.4075 8.93188C70.3029 11.4827 67.4533 14.3322 64.9025 17.4368L72.6291 23.7851ZM88.1273 11.0544C91.0683 9.47919 94.1795 8.18246 97.4259 7.19888L94.5263 -2.37151C90.6419 -1.19466 86.921 0.356444 83.4058 2.23927L88.1273 11.0544ZM107.303 5.24411C108.961 5.08275 110.644 5.00004 112.347 5.00004L112.347 -4.99996C110.32 -4.99996 108.314 -4.90151 106.334 -4.70886L107.303 5.24411ZM112.347 5.00004C114.05 5.00004 115.732 5.08275 117.39 5.24411L118.359 -4.70887C116.38 -4.90151 114.374 -4.99996 112.347 -4.99996L112.347 5.00004ZM127.268 7.19888C130.514 8.18246 133.625 9.47917 136.566 11.0544L141.288 2.23927C137.773 0.356426 134.052 -1.19466 130.167 -2.37152L127.268 7.19888ZM144.938 16.6584C147.539 18.7958 149.927 21.1837 152.064 23.7851L159.791 17.4368C157.24 14.3322 154.391 11.4827 151.286 8.93188L144.938 16.6584ZM157.668 32.1567C159.244 35.0977 160.54 38.2088 161.524 41.4552L171.094 38.5557C169.918 34.6713 168.366 30.9504 166.484 27.4351L157.668 32.1567ZM163.479 51.3325C163.64 52.9905 163.723 54.6729 163.723 56.3761L173.723 56.3761C173.723 54.3489 173.624 52.3433 173.432 50.3638L163.479 51.3325Z" fill="#FF5740" mask="url(#path-2-inside-1_503_4925)"/>
</g>
<defs>
<filter id="filter0_d_503_4925" x="0" y="0" width="226.996" height="396.242" filterUnits="userSpaceOnUse" color-interpolation-filters="sRGB">
<feFlood flood-opacity="0" result="BackgroundImageFix"/>
<feColorMatrix in="SourceAlpha" type="matrix" values="0 0 0 0 0 0 0 0 0 0 0 0 0 0 0 0 0 0 127 0" result="hardAlpha"/>
<feOffset dy="4"/>
<feGaussianBlur stdDeviation="2"/>
<feComposite in2="hardAlpha" operator="out"/>
<feColorMatrix type="matrix" values="0 0 0 0 0 0 0 0 0 0 0 0 0 0 0 0 0 0 0.25 0"/>
<feBlend mode="normal" in2="BackgroundImageFix" result="effect1_dropShadow_503_4925"/>
<feBlend mode="normal" in="SourceGraphic" in2="effect1_dropShadow_503_4925" result="shape"/>
</filter>
</defs>
</svg>
