<svg width="608" height="912" viewBox="0 0 608 912" fill="none" xmlns="http://www.w3.org/2000/svg">
<g filter="url(#filter0_d_643_4474)">
<path fill-rule="evenodd" clip-rule="evenodd" d="M471.037 99.4118C484.129 91.5968 499.433 87.1003 515.788 87.0845C564.172 87.0377 603.432 126.222 603.479 174.606C603.526 222.989 564.341 262.249 515.958 262.296C477.937 262.333 445.55 238.144 433.398 204.303L343.364 204.39L343.304 142.214L434.519 142.126C436.21 137.906 438.22 133.848 440.518 129.983C444.182 123.707 448.643 117.909 453.802 112.739C458.967 107.565 464.761 103.09 471.037 99.4118Z" fill="#FF5740"/>
</g>
<g filter="url(#filter1_d_643_4474)">
<path d="M191.335 532.967C188.163 531.481 185.09 529.814 182.127 527.976L180.809 530.101C177.756 528.206 174.817 526.136 172.008 523.903L173.564 521.946C170.832 519.774 168.225 517.443 165.756 514.964L163.985 516.729C161.458 514.192 159.073 511.505 156.842 508.681L158.803 507.131C156.647 504.401 154.639 501.539 152.791 498.555L150.666 499.871C149.724 498.35 148.823 496.798 147.964 495.217C147.097 493.622 146.278 492.005 145.506 490.369L147.768 489.303C146.259 486.102 144.939 482.826 143.809 479.491L141.441 480.293C140.278 476.857 139.311 473.36 138.546 469.822L140.989 469.293C140.243 465.845 139.692 462.355 139.339 458.842L136.852 459.092C136.491 455.492 136.332 451.869 136.379 448.239L138.879 448.272C138.924 444.754 139.167 441.23 139.612 437.717L137.132 437.403C137.359 435.61 137.637 433.819 137.966 432.033C138.294 430.255 138.672 428.49 139.097 426.742L141.526 427.333C142.361 423.905 143.385 420.541 144.592 417.255L142.245 416.393C143.491 412.997 144.927 409.682 146.543 406.465L148.777 407.587C150.356 404.443 152.111 401.394 154.033 398.457L151.942 397.088C153.918 394.069 156.066 391.163 158.378 388.388L160.299 389.988C162.543 387.293 164.946 384.724 167.497 382.296L165.774 380.485C167.079 379.243 168.423 378.036 169.804 376.868C171.17 375.712 172.565 374.599 173.987 373.529L175.489 375.527C178.277 373.431 181.172 371.508 184.158 369.763L182.897 367.605C185.988 365.799 189.173 364.18 192.437 362.753L193.438 365.044C196.623 363.652 199.884 362.449 203.205 361.44L202.478 359.048C205.892 358.012 209.367 357.175 212.886 356.545L213.327 359.006C216.735 358.396 220.187 357.985 223.664 357.78L223.517 355.284C225.295 355.179 227.08 355.126 228.87 355.126C230.66 355.126 232.445 355.179 234.223 355.284L234.076 357.78C237.553 357.985 241.005 358.396 244.413 359.006L244.854 356.545C248.373 357.175 251.848 358.012 255.262 359.048L254.535 361.44C257.856 362.449 261.117 363.652 264.302 365.044L265.303 362.753C268.567 364.18 271.752 365.799 274.843 367.605L273.582 369.763C276.567 371.508 279.462 373.431 282.25 375.527L283.753 373.529C285.175 374.599 286.57 375.712 287.936 376.868C289.317 378.036 290.66 379.243 291.966 380.485L290.243 382.296C292.794 384.724 295.197 387.293 297.441 389.988L299.362 388.388C301.674 391.163 303.822 394.069 305.798 397.088L303.706 398.457C305.629 401.394 307.384 404.443 308.963 407.587L311.197 406.465C312.813 409.682 314.248 412.997 315.495 416.393L313.148 417.254C314.354 420.541 315.379 423.905 316.214 427.333L318.643 426.742C319.068 428.49 319.446 430.255 319.774 432.033C320.103 433.819 320.381 435.61 320.608 437.403L318.128 437.717C318.572 441.23 318.816 444.754 318.861 448.272L321.361 448.239C321.408 451.869 321.249 455.492 320.888 459.092L318.4 458.842C318.048 462.355 317.497 465.845 316.751 469.293L319.194 469.822C318.428 473.36 317.462 476.857 316.298 480.293L313.93 479.491C312.801 482.826 311.481 486.102 309.972 489.303L312.233 490.369C311.462 492.005 310.643 493.622 309.776 495.217C308.917 496.798 308.016 498.35 307.074 499.871L304.949 498.555C303.101 501.539 301.093 504.401 298.936 507.131L300.898 508.681C298.667 511.505 296.282 514.192 293.755 516.729L291.984 514.964C289.515 517.443 286.908 519.774 284.176 521.946L285.732 523.903C282.923 526.136 279.984 528.206 276.931 530.101L275.613 527.976C272.651 529.814 269.577 531.481 266.405 532.967L267.465 535.231C266.354 535.751 265.231 536.25 264.097 536.726L264.097 539.956L261.597 539.956L261.597 549.772L264.097 549.772L264.097 559.588L261.597 559.588L261.597 569.404L264.097 569.404L264.097 579.22L261.597 579.22L261.597 589.036L264.097 589.036L264.097 598.852L261.597 598.852L261.597 608.668L264.097 608.668L264.097 618.484L261.597 618.484L261.597 628.3L264.097 628.3L264.097 630.708L266.857 630.708L266.857 633.208L277.376 633.208L277.376 630.708L287.895 630.708L287.895 633.208L298.415 633.208L298.415 630.708L308.934 630.708L308.934 633.208L319.454 633.208L319.454 630.708L329.973 630.708L329.973 633.208L340.492 633.208L340.492 630.708L351.012 630.708L351.012 633.208L361.531 633.208L361.531 630.708L372.05 630.708L372.05 633.208L382.57 633.208L382.57 630.708L393.089 630.708L393.089 633.208L403.608 633.208L403.608 630.708L406.368 630.708L406.368 628.105L408.868 628.105L408.868 617.899L406.368 617.899L406.368 607.693L408.868 607.693L408.868 597.487L406.368 597.487L406.368 587.28L408.868 587.28L408.868 577.074L406.368 577.074L406.368 566.868L408.868 566.868L408.868 556.662L406.368 556.662L406.368 546.456L408.868 546.456L408.868 536.25L406.368 536.25L406.368 526.044L408.868 526.044L408.868 515.838L406.368 515.838L406.368 505.631L408.868 505.631L408.868 495.425L406.368 495.425L406.368 485.219L408.868 485.219L408.868 475.013L406.368 475.013L406.368 464.807L408.868 464.807L408.868 454.601L406.368 454.601L406.368 444.395L408.868 444.395L408.868 434.189L406.368 434.189L406.368 423.982L408.868 423.982L408.868 413.776L406.368 413.776L406.368 403.57L408.868 403.57L408.868 393.364L406.368 393.364L406.368 383.158L408.868 383.158L408.868 372.952L406.368 372.952L406.368 362.746L408.868 362.746L408.868 352.54L406.368 352.54L406.368 342.333L408.868 342.333L408.868 332.127L406.368 332.127L406.368 321.921L408.868 321.921L408.868 311.715L406.368 311.715L406.368 301.509L408.868 301.509L408.868 291.303L406.368 291.303L406.368 281.097L408.868 281.097L408.868 270.89L406.368 270.89L406.368 268.287L403.868 268.287L403.868 265.787L393.868 265.787L393.868 268.287L383.868 268.287L383.868 265.787L373.868 265.787L373.868 268.287L363.869 268.287L363.869 265.787L353.869 265.787L353.869 268.287L343.869 268.287L343.869 265.787L333.869 265.787L333.869 268.287L323.869 268.287L323.869 265.787L313.869 265.787L313.869 268.287L303.869 268.287L303.869 265.787L293.869 265.787L293.869 268.287L283.869 268.287L283.869 265.787L273.87 265.787L273.87 268.287L263.87 268.287L263.87 265.787L253.87 265.787L253.87 268.287L243.87 268.287L243.87 265.787L233.87 265.787L233.87 268.287L223.87 268.287L223.87 265.787L213.87 265.787L213.87 268.287L203.87 268.287L203.87 265.787L193.87 265.787L193.87 268.287L183.871 268.287L183.871 265.787L173.871 265.787L173.871 268.287L163.871 268.287L163.871 265.787L153.871 265.787L153.871 268.287L143.871 268.287L143.871 265.787L133.871 265.787L133.871 268.287L123.871 268.287L123.871 265.787L113.871 265.787L113.871 268.287L103.871 268.287L103.871 265.787L93.8715 265.787L93.8715 268.287L83.8717 268.287L83.8717 265.787L73.8718 265.787L73.8718 268.287L63.8719 268.287L63.8719 265.787L53.872 265.787L53.872 268.287L51.372 268.287L51.372 270.891L48.872 270.891L48.872 281.097L51.372 281.097L51.372 291.303L48.872 291.303L48.872 301.509L51.372 301.509L51.372 311.715L48.872 311.715L48.872 321.921L51.372 321.921L51.372 332.127L48.872 332.127L48.872 342.333L51.372 342.333L51.3721 352.539L48.8721 352.539L48.8721 362.746L51.3721 362.746L51.3721 372.952L48.8721 372.952L48.8721 383.158L51.3721 383.158L51.3721 393.364L48.8721 393.364L48.8721 403.57L51.3721 403.57L51.3721 413.776L48.8721 413.776L48.8721 423.982L51.3721 423.982L51.3721 434.188L48.8721 434.188L48.8721 444.395L51.3721 444.395L51.3721 454.601L48.8721 454.601L48.8721 464.807L51.3721 464.807L51.3721 475.013L48.8721 475.013L48.8721 485.219L51.3721 485.219L51.3721 495.425L48.8721 495.425L48.8721 505.631L51.3721 505.631L51.3721 515.838L48.8721 515.838L48.8721 526.044L51.3721 526.044L51.3721 536.25L48.8721 536.25L48.8721 546.456L51.3721 546.456L51.3721 556.662L48.8721 556.662L48.8721 566.868L51.3721 566.868L51.3721 577.074L48.8721 577.074L48.8721 587.28L51.3721 587.28L51.3721 597.487L48.8721 597.487L48.8721 607.693L51.3721 607.693L51.3721 617.899L48.8721 617.899L48.8721 628.105L51.3721 628.105L51.3721 630.708L54.1318 630.708L54.1318 633.208L64.6511 633.208L64.6511 630.708L75.1705 630.708L75.1705 633.208L85.6899 633.208L85.6899 630.708L96.2092 630.708L96.2092 633.208L106.729 633.208L106.729 630.708L117.248 630.708L117.248 633.208L127.767 633.208L127.767 630.708L138.287 630.708L138.287 633.208L148.806 633.208L148.806 630.708L159.325 630.708L159.325 633.208L169.845 633.208L169.845 630.708L180.364 630.708L180.364 633.208L190.883 633.208L190.883 630.708L193.643 630.708L193.643 628.3L196.143 628.3L196.143 618.484L193.643 618.484L193.643 608.668L196.143 608.668L196.143 598.852L193.643 598.852L193.643 589.036L196.143 589.036L196.143 579.22L193.643 579.22L193.643 569.404L196.143 569.404L196.143 559.588L193.643 559.588L193.643 549.772L196.143 549.772L196.143 539.956L193.643 539.956L193.643 536.726C192.509 536.25 191.386 535.751 190.275 535.231L191.335 532.967Z" stroke="#4385F5" stroke-width="5" stroke-dasharray="10 10"/>
<mask id="path-3-inside-1_643_4474" fill="white">
<path fill-rule="evenodd" clip-rule="evenodd" d="M306.726 764.088C314.936 777.92 319.65 794.071 319.65 811.323C319.65 862.505 278.159 903.996 226.977 903.996C175.795 903.996 134.304 862.505 134.304 811.323C134.304 771.103 159.925 736.867 195.737 724.047L195.737 628.803L261.509 628.803L261.509 725.297C265.915 727.067 270.153 729.166 274.194 731.563C280.888 735.462 287.07 740.218 292.576 745.723C298.077 751.225 302.829 757.4 306.726 764.088Z"/>
</mask>
<path d="M306.726 764.088L304.577 765.364L304.571 765.356L304.566 765.347L306.726 764.088ZM134.304 811.323L136.804 811.323L134.304 811.323ZM195.737 724.047L198.237 724.047L198.237 725.807L196.58 726.4L195.737 724.047ZM195.737 628.803L193.237 628.803L193.237 626.303L195.737 626.303L195.737 628.803ZM261.509 628.803L261.509 626.303L264.009 626.303L264.009 628.803L261.509 628.803ZM261.509 725.297L260.577 727.617L259.009 726.987L259.009 725.297L261.509 725.297ZM274.194 731.563L272.936 733.723L272.927 733.718L272.918 733.713L274.194 731.563ZM292.576 745.723L290.808 747.491L292.576 745.723ZM317.15 811.323C317.15 809.297 317.084 807.287 316.952 805.296L321.941 804.967C322.08 807.068 322.15 809.187 322.15 811.323L317.15 811.323ZM315.36 793.353C314.557 789.379 313.492 785.5 312.185 781.735L316.908 780.095C318.289 784.071 319.413 788.167 320.261 792.363L315.36 793.353ZM307.478 770.647C306.568 768.851 305.6 767.089 304.577 765.364L308.876 762.812C309.957 764.633 310.978 766.492 311.938 768.388L307.478 770.647ZM304.566 765.347C303.618 763.719 302.617 762.123 301.566 760.56L305.715 757.769C306.826 759.421 307.884 761.109 308.886 762.83L304.566 765.347ZM294.672 751.613C293.43 750.2 292.142 748.825 290.808 747.491L294.343 743.956C295.753 745.366 297.116 746.819 298.428 748.313L294.672 751.613ZM290.808 747.491C289.473 746.156 288.097 744.866 286.682 743.624L289.983 739.868C291.478 741.181 292.932 742.544 294.343 743.956L290.808 747.491ZM277.728 736.725C276.163 735.674 274.565 734.672 272.936 733.723L275.452 729.403C277.175 730.406 278.864 731.464 280.517 732.576L277.728 736.725ZM272.918 733.713C271.932 733.128 270.933 732.561 269.923 732.012L272.308 727.618C273.374 728.197 274.428 728.795 275.47 729.413L272.918 733.713ZM263.748 728.962C262.701 728.494 261.644 728.045 260.577 727.617L262.441 722.977C263.568 723.43 264.684 723.903 265.789 724.397L263.748 728.962ZM259.009 725.297L259.009 720.472L264.009 720.472L264.009 725.297L259.009 725.297ZM259.009 710.823L259.009 701.173L264.009 701.173L264.009 710.823L259.009 710.823ZM259.009 691.524L259.009 681.875L264.009 681.875L264.009 691.524L259.009 691.524ZM259.009 672.225L259.009 662.576L264.009 662.576L264.009 672.225L259.009 672.225ZM259.009 652.926L259.009 643.277L264.009 643.277L264.009 652.926L259.009 652.926ZM259.009 633.628L259.009 628.803L264.009 628.803L264.009 633.628L259.009 633.628ZM261.509 631.303L256.028 631.303L256.028 626.303L261.509 626.303L261.509 631.303ZM245.066 631.303L234.104 631.303L234.104 626.303L245.066 626.303L245.066 631.303ZM223.142 631.303L212.18 631.303L212.18 626.303L223.142 626.303L223.142 631.303ZM201.218 631.303L195.737 631.303L195.737 626.303L201.218 626.303L201.218 631.303ZM198.237 628.803L198.237 633.565L193.237 633.565L193.237 628.803L198.237 628.803ZM198.237 643.09L198.237 652.614L193.237 652.614L193.237 643.09L198.237 643.09ZM198.237 662.138L198.237 671.663L193.237 671.663L193.237 662.138L198.237 662.138ZM198.237 681.187L198.237 690.711L193.237 690.711L193.237 681.187L198.237 681.187ZM198.237 700.236L198.237 709.76L193.237 709.76L193.237 700.236L198.237 700.236ZM198.237 719.285L198.237 724.047L193.237 724.047L193.237 719.285L198.237 719.285ZM196.58 726.4C195.129 726.92 193.695 727.475 192.28 728.066L190.355 723.451C191.849 722.828 193.363 722.241 194.894 721.693L196.58 726.4ZM183.969 732.047C181.261 733.519 178.637 735.126 176.106 736.858L173.281 732.732C175.953 730.904 178.722 729.208 181.58 727.654L183.969 732.047ZM168.774 742.446C166.425 744.433 164.18 746.537 162.047 748.75L158.447 745.28C160.698 742.945 163.067 740.725 165.544 738.629L168.774 742.446ZM155.994 755.705C154.099 758.119 152.325 760.633 150.68 763.237L146.453 760.567C148.189 757.819 150.061 755.166 152.06 752.618L155.994 755.705ZM146.163 771.272C144.802 774.014 143.576 776.835 142.494 779.726L137.811 777.974C138.953 774.921 140.248 771.943 141.685 769.048L146.163 771.272ZM139.713 788.511C138.944 791.464 138.32 794.475 137.85 797.538L132.908 796.78C133.404 793.547 134.062 790.367 134.875 787.25L139.713 788.511ZM136.92 806.709C136.843 808.237 136.804 809.775 136.804 811.323L131.804 811.323C131.804 809.691 131.845 808.069 131.926 806.457L136.92 806.709ZM136.804 811.323C136.804 813.021 136.851 814.709 136.943 816.384L131.951 816.66C131.853 814.893 131.804 813.113 131.804 811.323L136.804 811.323ZM138.065 826.438C138.63 829.791 139.381 833.081 140.306 836.297L135.501 837.679C134.524 834.283 133.732 830.81 133.134 827.27L138.065 826.438ZM143.645 845.839C144.942 848.968 146.411 852.007 148.039 854.947L143.665 857.369C141.946 854.267 140.396 851.058 139.027 847.755L143.645 845.839ZM153.427 863.505C155.384 866.258 157.492 868.897 159.738 871.409L156.011 874.742C153.641 872.091 151.417 869.307 149.352 866.402L153.427 863.505ZM166.891 878.561C169.403 880.808 172.041 882.915 174.794 884.872L171.898 888.948C168.992 886.883 166.208 884.659 163.558 882.288L166.891 878.561ZM183.353 890.261C186.292 891.889 189.332 893.357 192.46 894.655L190.545 899.273C187.242 897.904 184.033 896.353 180.93 894.635L183.353 890.261ZM202.002 897.993C205.219 898.918 208.509 899.669 211.862 900.235L211.03 905.165C207.49 904.568 204.016 903.775 200.62 902.799L202.002 897.993ZM221.916 901.356C223.591 901.449 225.278 901.496 226.977 901.496L226.977 906.496C225.186 906.496 223.407 906.447 221.64 906.349L221.916 901.356ZM226.977 901.496C228.676 901.496 230.363 901.449 232.038 901.356L232.314 906.349C230.547 906.447 228.768 906.496 226.977 906.496L226.977 901.496ZM242.092 900.235C245.445 899.669 248.736 898.918 251.952 897.993L253.334 902.799C249.938 903.775 246.464 904.568 242.924 905.165L242.092 900.235ZM261.494 894.655C264.622 893.357 267.662 891.889 270.601 890.261L273.024 894.635C269.921 896.353 266.712 897.904 263.409 899.273L261.494 894.655ZM279.16 884.872C281.913 882.915 284.551 880.808 287.063 878.561L290.396 882.288C287.746 884.659 284.962 886.883 282.057 888.948L279.16 884.872ZM294.216 871.409C296.462 868.897 298.57 866.258 300.527 863.505L304.602 866.402C302.537 869.307 300.313 872.091 297.943 874.742L294.216 871.409ZM305.915 854.947C307.543 852.007 309.012 848.968 310.309 845.839L314.928 847.755C313.558 851.058 312.008 854.267 310.289 857.369L305.915 854.947ZM313.648 836.297C314.573 833.081 315.324 829.791 315.89 826.438L320.82 827.27C320.223 830.81 319.43 834.283 318.453 837.679L313.648 836.297ZM317.011 816.384C317.104 814.709 317.15 813.021 317.15 811.323L322.15 811.323C322.15 813.113 322.101 814.893 322.003 816.66L317.011 816.384ZM306.726 764.088L302.427 766.64L302.416 766.623L302.406 766.606L306.726 764.088ZM134.304 811.323L139.304 811.323L134.304 811.323ZM195.737 724.047L200.737 724.047L200.737 727.568L197.422 728.754L195.737 724.047ZM195.737 628.803L190.737 628.803L190.737 623.803L195.737 623.803L195.737 628.803ZM261.509 628.803L261.509 623.803L266.509 623.803L266.509 628.803L261.509 628.803ZM261.509 725.297L259.645 729.936L256.509 728.676L256.509 725.297L261.509 725.297ZM274.194 731.563L271.677 735.884L271.66 735.873L271.643 735.863L274.194 731.563ZM292.576 745.723L289.04 749.259L292.576 745.723ZM314.65 811.323C314.65 809.352 314.586 807.397 314.458 805.46L324.436 804.802C324.578 806.958 324.65 809.132 324.65 811.323L314.65 811.323ZM312.91 793.849C312.129 789.986 311.094 786.215 309.823 782.555L319.27 779.275C320.687 783.356 321.841 787.561 322.712 791.867L312.91 793.849ZM305.247 771.776C304.363 770.03 303.422 768.317 302.427 766.64L311.026 761.536C312.135 763.405 313.183 765.313 314.169 767.259L305.247 771.776ZM302.406 766.606C301.485 765.024 300.513 763.473 299.491 761.955L307.789 756.374C308.93 758.071 310.017 759.804 311.046 761.571L302.406 766.606ZM292.794 753.263C291.588 751.891 290.336 750.555 289.04 749.259L296.111 742.188C297.559 743.636 298.958 745.128 300.306 746.662L292.794 753.263ZM289.04 749.259C287.743 747.962 286.406 746.709 285.032 745.502L291.633 737.99C293.168 739.339 294.662 740.739 296.111 742.188L289.04 749.259ZM276.333 738.8C274.813 737.778 273.26 736.806 271.677 735.884L276.71 727.242C278.479 728.273 280.214 729.36 281.912 730.501L276.333 738.8ZM271.643 735.863C270.684 735.294 269.713 734.743 268.73 734.21L273.5 725.421C274.595 726.015 275.676 726.629 276.745 727.263L271.643 735.863ZM262.727 731.244C261.71 730.789 260.682 730.353 259.645 729.936L263.373 720.657C264.53 721.122 265.675 721.608 266.809 722.115L262.727 731.244ZM256.509 725.297L256.509 720.472L266.509 720.472L266.509 725.297L256.509 725.297ZM256.509 710.823L256.509 701.173L266.509 701.173L266.509 710.823L256.509 710.823ZM256.509 691.524L256.509 681.875L266.509 681.875L266.509 691.524L256.509 691.524ZM256.509 672.225L256.509 662.576L266.509 662.576L266.509 672.225L256.509 672.225ZM256.509 652.926L256.509 643.277L266.509 643.277L266.509 652.926L256.509 652.926ZM256.509 633.628L256.509 628.803L266.509 628.803L266.509 633.628L256.509 633.628ZM261.509 633.803L256.028 633.803L256.028 623.803L261.509 623.803L261.509 633.803ZM245.066 633.803L234.104 633.803L234.104 623.803L245.066 623.803L245.066 633.803ZM223.142 633.803L212.18 633.803L212.18 623.803L223.142 623.803L223.142 633.803ZM201.218 633.803L195.737 633.803L195.737 623.803L201.218 623.803L201.218 633.803ZM200.737 628.803L200.737 633.565L190.737 633.565L190.737 628.803L200.737 628.803ZM200.737 643.09L200.737 652.614L190.737 652.614L190.737 643.09L200.737 643.09ZM200.737 662.138L200.737 671.663L190.737 671.663L190.737 662.138L200.737 662.138ZM200.737 681.187L200.737 690.711L190.737 690.711L190.737 681.187L200.737 681.187ZM200.737 700.236L200.737 709.76L190.737 709.76L190.737 700.236L200.737 700.236ZM200.737 719.285L200.737 724.047L190.737 724.047L190.737 719.285L200.737 719.285ZM197.422 728.754C196.012 729.259 194.618 729.799 193.243 730.373L189.392 721.144C190.926 720.504 192.479 719.902 194.052 719.339L197.422 728.754ZM185.163 734.243C182.53 735.674 179.979 737.237 177.518 738.921L171.869 730.669C174.611 728.793 177.453 727.052 180.386 725.458L185.163 734.243ZM170.388 744.355C168.105 746.287 165.921 748.333 163.847 750.485L156.647 743.545C158.956 741.149 161.387 738.871 163.93 736.72L170.388 744.355ZM157.961 757.248C156.118 759.596 154.393 762.04 152.794 764.572L144.339 759.232C146.121 756.412 148.042 753.69 150.094 751.075L157.961 757.248ZM148.402 772.384C147.079 775.049 145.887 777.792 144.835 780.602L135.469 777.098C136.642 773.964 137.971 770.907 139.446 767.936L148.402 772.384ZM142.133 789.142C141.384 792.012 140.778 794.939 140.321 797.917L130.437 796.401C130.946 793.083 131.622 789.819 132.456 786.619L142.133 789.142ZM139.416 806.834C139.342 808.321 139.304 809.817 139.304 811.323L129.304 811.323C129.304 809.649 129.346 807.985 129.429 806.331L139.416 806.834ZM139.304 811.323C139.304 812.975 139.349 814.617 139.439 816.246L129.455 816.798C129.354 814.985 129.304 813.16 129.304 811.323L139.304 811.323ZM140.53 826.022C141.08 829.282 141.81 832.48 142.709 835.606L133.099 838.37C132.096 834.884 131.282 831.319 130.669 827.686L140.53 826.022ZM145.954 844.882C147.216 847.923 148.643 850.878 150.226 853.735L141.478 858.58C139.714 855.396 138.123 852.102 136.717 848.712L145.954 844.882ZM155.465 862.057C157.368 864.734 159.417 867.3 161.602 869.742L154.148 876.408C151.716 873.689 149.434 870.832 147.314 867.85L155.465 862.057ZM168.557 876.698C171 878.882 173.566 880.932 176.243 882.835L170.449 890.985C167.468 888.866 164.611 886.584 161.891 884.152L168.557 876.698ZM184.564 888.074C187.422 889.657 190.377 891.084 193.418 892.345L189.588 901.583C186.197 900.177 182.904 898.585 179.719 896.822L184.564 888.074ZM202.693 895.591C205.82 896.49 209.018 897.22 212.278 897.77L210.614 907.631C206.981 907.018 203.415 906.204 199.929 905.201L202.693 895.591ZM222.054 898.86C223.683 898.95 225.325 898.996 226.977 898.996L226.977 908.996C225.14 908.996 223.315 908.945 221.502 908.845L222.054 898.86ZM226.977 898.996C228.63 898.996 230.271 898.95 231.9 898.86L232.452 908.845C230.639 908.945 228.814 908.996 226.977 908.996L226.977 898.996ZM241.676 897.77C244.936 897.22 248.134 896.49 251.261 895.591L254.025 905.201C250.539 906.204 246.973 907.018 243.34 907.631L241.676 897.77ZM260.536 892.345C263.577 891.084 266.532 889.657 269.39 888.074L274.235 896.822C271.051 898.585 267.757 900.177 264.367 901.583L260.536 892.345ZM277.711 882.835C280.388 880.932 282.954 878.882 285.397 876.698L292.063 884.152C289.343 886.584 286.486 888.866 283.505 890.985L277.711 882.835ZM292.352 869.742C294.537 867.3 296.586 864.734 298.489 862.057L306.64 867.851C304.521 870.832 302.238 873.689 299.806 876.408L292.352 869.742ZM303.728 853.735C305.311 850.878 306.739 847.923 308 844.882L317.237 848.712C315.831 852.103 314.24 855.396 312.476 858.58L303.728 853.735ZM311.245 835.606C312.144 832.48 312.874 829.282 313.424 826.022L323.285 827.686C322.672 831.319 321.858 834.884 320.856 838.37L311.245 835.606ZM314.515 816.246C314.605 814.617 314.65 812.975 314.65 811.323L324.65 811.323C324.65 813.159 324.6 814.985 324.499 816.798L314.515 816.246Z" fill="#4385F5" mask="url(#path-3-inside-1_643_4474)"/>
</g>
<g filter="url(#filter2_d_643_4474)">
<path d="M345.668 2.91243L0.000241545 3.24687L0.32949 343.558L345.997 343.223L345.862 204.005L253.514 204.095C246.206 222.577 232.569 237.966 214.96 247.6C197.351 257.235 176.877 260.51 157.076 256.86C137.275 253.21 119.391 242.863 106.517 227.609C93.642 212.355 86.5856 193.152 86.5664 173.319C86.5472 153.486 93.5665 134.269 106.412 118.99C119.257 103.711 137.12 93.3305 156.914 89.642C176.708 85.9534 197.189 89.1889 214.816 98.7894C232.444 108.39 246.111 123.752 253.454 142.22L345.803 142.131L345.668 2.91243Z" fill="#FF5740"/>
</g>
<defs>
<filter id="filter0_d_643_4474" x="339.304" y="85.0845" width="268.175" height="183.212" filterUnits="userSpaceOnUse" color-interpolation-filters="sRGB">
<feFlood flood-opacity="0" result="BackgroundImageFix"/>
<feColorMatrix in="SourceAlpha" type="matrix" values="0 0 0 0 0 0 0 0 0 0 0 0 0 0 0 0 0 0 127 0" result="hardAlpha"/>
<feOffset dy="2"/>
<feGaussianBlur stdDeviation="2"/>
<feComposite in2="hardAlpha" operator="out"/>
<feColorMatrix type="matrix" values="0 0 0 0 0 0 0 0 0 0 0 0 0 0 0 0 0 0 0.1 0"/>
<feBlend mode="normal" in2="BackgroundImageFix" result="effect1_dropShadow_643_4474"/>
<feBlend mode="normal" in="SourceGraphic" in2="effect1_dropShadow_643_4474" result="shape"/>
</filter>
<filter id="filter1_d_643_4474" x="44.8721" y="265.787" width="367.996" height="646.209" filterUnits="userSpaceOnUse" color-interpolation-filters="sRGB">
<feFlood flood-opacity="0" result="BackgroundImageFix"/>
<feColorMatrix in="SourceAlpha" type="matrix" values="0 0 0 0 0 0 0 0 0 0 0 0 0 0 0 0 0 0 127 0" result="hardAlpha"/>
<feOffset dy="4"/>
<feGaussianBlur stdDeviation="2"/>
<feComposite in2="hardAlpha" operator="out"/>
<feColorMatrix type="matrix" values="0 0 0 0 0 0 0 0 0 0 0 0 0 0 0 0 0 0 0.25 0"/>
<feBlend mode="normal" in2="BackgroundImageFix" result="effect1_dropShadow_643_4474"/>
<feBlend mode="normal" in="SourceGraphic" in2="effect1_dropShadow_643_4474" result="shape"/>
</filter>
<filter id="filter2_d_643_4474" x="-4" y="0.912354" width="353.997" height="348.646" filterUnits="userSpaceOnUse" color-interpolation-filters="sRGB">
<feFlood flood-opacity="0" result="BackgroundImageFix"/>
<feColorMatrix in="SourceAlpha" type="matrix" values="0 0 0 0 0 0 0 0 0 0 0 0 0 0 0 0 0 0 127 0" result="hardAlpha"/>
<feOffset dy="2"/>
<feGaussianBlur stdDeviation="2"/>
<feComposite in2="hardAlpha" operator="out"/>
<feColorMatrix type="matrix" values="0 0 0 0 0 0 0 0 0 0 0 0 0 0 0 0 0 0 0.1 0"/>
<feBlend mode="normal" in2="BackgroundImageFix" result="effect1_dropShadow_643_4474"/>
<feBlend mode="normal" in="SourceGraphic" in2="effect1_dropShadow_643_4474" result="shape"/>
</filter>
</defs>
</svg>
