<svg width="515" height="297" viewBox="0 0 515 297" fill="none" xmlns="http://www.w3.org/2000/svg">
<g filter="url(#filter0_d_510_4664)">
<path fill-rule="evenodd" clip-rule="evenodd" d="M116.19 84.259C105.117 77.657 92.1773 73.8589 78.3496 73.8455C37.4035 73.8059 4.1781 106.967 4.13849 147.913C4.09887 188.859 37.2601 222.085 78.2061 222.124C110.382 222.155 137.791 201.685 148.075 173.045L224.27 173.119L224.321 120.501L147.126 120.426C145.703 116.875 144.014 113.46 142.083 110.206C138.976 104.873 135.19 99.9472 130.808 95.5568C126.429 91.169 121.513 87.3751 116.19 84.259Z" fill="#4385F5"/>
</g>
<g filter="url(#filter1_d_510_4664)">
<path d="M222.32 2.61206L514.852 2.89508L514.574 290.894L222.041 290.611L222.155 172.794L300.308 172.869C306.492 188.511 318.033 201.534 332.935 209.687C347.837 217.841 365.165 220.612 381.922 217.523C398.679 214.434 413.814 205.678 424.709 192.769C435.605 179.86 441.577 163.608 441.593 146.824C441.609 130.04 435.669 113.777 424.798 100.847C413.928 87.9163 398.81 79.1313 382.059 76.0098C365.307 72.8882 347.975 75.6264 333.057 83.7511C318.139 91.8758 306.573 104.876 300.358 120.506L222.206 120.43L222.32 2.61206Z" fill="#4385F5"/>
</g>
<defs>
<filter id="filter0_d_510_4664" x="0.138672" y="71.8455" width="228.182" height="156.279" filterUnits="userSpaceOnUse" color-interpolation-filters="sRGB">
<feFlood flood-opacity="0" result="BackgroundImageFix"/>
<feColorMatrix in="SourceAlpha" type="matrix" values="0 0 0 0 0 0 0 0 0 0 0 0 0 0 0 0 0 0 127 0" result="hardAlpha"/>
<feOffset dy="2"/>
<feGaussianBlur stdDeviation="2"/>
<feComposite in2="hardAlpha" operator="out"/>
<feColorMatrix type="matrix" values="0 0 0 0 0 0 0 0 0 0 0 0 0 0 0 0 0 0 0.1 0"/>
<feBlend mode="normal" in2="BackgroundImageFix" result="effect1_dropShadow_510_4664"/>
<feBlend mode="normal" in="SourceGraphic" in2="effect1_dropShadow_510_4664" result="shape"/>
</filter>
<filter id="filter1_d_510_4664" x="218.041" y="0.612061" width="300.811" height="296.282" filterUnits="userSpaceOnUse" color-interpolation-filters="sRGB">
<feFlood flood-opacity="0" result="BackgroundImageFix"/>
<feColorMatrix in="SourceAlpha" type="matrix" values="0 0 0 0 0 0 0 0 0 0 0 0 0 0 0 0 0 0 127 0" result="hardAlpha"/>
<feOffset dy="2"/>
<feGaussianBlur stdDeviation="2"/>
<feComposite in2="hardAlpha" operator="out"/>
<feColorMatrix type="matrix" values="0 0 0 0 0 0 0 0 0 0 0 0 0 0 0 0 0 0 0.1 0"/>
<feBlend mode="normal" in2="BackgroundImageFix" result="effect1_dropShadow_510_4664"/>
<feBlend mode="normal" in="SourceGraphic" in2="effect1_dropShadow_510_4664" result="shape"/>
</filter>
</defs>
</svg>
