<svg width="28" height="29" viewBox="0 0 28 29" fill="none" xmlns="http://www.w3.org/2000/svg">
<path d="M8.12 0.831055H19.88C24.36 0.831055 28 4.47105 28 8.95105V20.7111C28 22.8646 27.1445 24.93 25.6217 26.4528C24.0989 27.9756 22.0336 28.8311 19.88 28.8311H8.12C3.64 28.8311 0 25.1911 0 20.7111V8.95105C0 6.7975 0.855498 4.73214 2.37829 3.20935C3.90109 1.68655 5.96644 0.831055 8.12 0.831055ZM7.84 3.63105C6.50331 3.63105 5.22137 4.16205 4.27618 5.10724C3.331 6.05242 2.8 7.33436 2.8 8.67105V20.9911C2.8 23.7771 5.054 26.0311 7.84 26.0311H20.16C21.4967 26.0311 22.7786 25.5001 23.7238 24.5549C24.669 23.6097 25.2 22.3277 25.2 20.9911V8.67105C25.2 5.88505 22.946 3.63105 20.16 3.63105H7.84ZM21.35 5.73105C21.8141 5.73105 22.2592 5.91543 22.5874 6.24362C22.9156 6.57181 23.1 7.01693 23.1 7.48105C23.1 7.94518 22.9156 8.3903 22.5874 8.71849C22.2592 9.04668 21.8141 9.23105 21.35 9.23105C20.8859 9.23105 20.4408 9.04668 20.1126 8.71849C19.7844 8.3903 19.6 7.94518 19.6 7.48105C19.6 7.01693 19.7844 6.57181 20.1126 6.24362C20.4408 5.91543 20.8859 5.73105 21.35 5.73105ZM14 7.83105C15.8565 7.83105 17.637 8.56855 18.9497 9.88131C20.2625 11.1941 21 12.9745 21 14.8311C21 16.6876 20.2625 18.468 18.9497 19.7808C17.637 21.0936 15.8565 21.8311 14 21.8311C12.1435 21.8311 10.363 21.0936 9.05025 19.7808C7.7375 18.468 7 16.6876 7 14.8311C7 12.9745 7.7375 11.1941 9.05025 9.88131C10.363 8.56855 12.1435 7.83105 14 7.83105ZM14 10.6311C12.8861 10.6311 11.8178 11.0736 11.0302 11.8612C10.2425 12.6489 9.8 13.7171 9.8 14.8311C9.8 15.945 10.2425 17.0133 11.0302 17.8009C11.8178 18.5886 12.8861 19.0311 14 19.0311C15.1139 19.0311 16.1822 18.5886 16.9698 17.8009C17.7575 17.0133 18.2 15.945 18.2 14.8311C18.2 13.7171 17.7575 12.6489 16.9698 11.8612C16.1822 11.0736 15.1139 10.6311 14 10.6311Z" fill="#4385F5"/>
</svg>
