<svg width="28" height="29" viewBox="0 0 28 29" fill="none" xmlns="http://www.w3.org/2000/svg">
<path d="M24.2963 0.831055C25.1018 0.831055 25.8742 1.15883 26.4438 1.74228C27.0134 2.32572 27.3333 3.11705 27.3333 3.94217V25.7199C27.3333 26.5451 27.0134 27.3364 26.4438 27.9198C25.8742 28.5033 25.1018 28.8311 24.2963 28.8311H3.03704C2.23156 28.8311 1.45908 28.5033 0.889527 27.9198C0.319972 27.3364 0 26.5451 0 25.7199V3.94217C0 3.11705 0.319972 2.32572 0.889527 1.74228C1.45908 1.15883 2.23156 0.831055 3.03704 0.831055H24.2963ZM23.537 24.9422V16.6977C23.537 15.3528 23.0155 14.0629 22.0871 13.1119C21.1587 12.1609 19.8996 11.6266 18.5867 11.6266C17.2959 11.6266 15.7926 12.4355 15.0637 13.6488V11.9222H10.827V24.9422H15.0637V17.2733C15.0637 16.0755 16.0052 15.0955 17.1744 15.0955C17.7383 15.0955 18.279 15.3249 18.6777 15.7334C19.0764 16.1418 19.3004 16.6957 19.3004 17.2733V24.9422H23.537ZM5.89185 9.47994C6.56845 9.47994 7.21733 9.20461 7.69576 8.71452C8.17419 8.22442 8.44296 7.55971 8.44296 6.86661C8.44296 5.41994 7.30407 4.23772 5.89185 4.23772C5.21123 4.23772 4.55848 4.51469 4.07721 5.00771C3.59593 5.50072 3.32556 6.16939 3.32556 6.86661C3.32556 8.31328 4.47963 9.47994 5.89185 9.47994ZM8.00259 24.9422V11.9222H3.7963V24.9422H8.00259Z" fill="#4385F5"/>
</svg>
