<svg width="816" height="182" viewBox="0 0 816 182" fill="none" xmlns="http://www.w3.org/2000/svg">
<path d="M390.336 90.0095H409.035L385.781 20.812H364.254L341 90.0095H358.932L363.343 74.8081H385.973L390.336 90.0095ZM374.466 35.4859H374.85L382.521 62.1483H366.747L374.466 35.4859ZM368.617 15.0575H381.562L370.583 0H355.671L368.617 15.0575Z" fill="#103F8E"/>
<path d="M434.782 20.812V90.0095H462.878C483.735 90.0095 496.057 77.1099 496.057 55.0031C496.057 32.9443 483.783 20.812 462.878 20.812H434.782ZM452.378 35.0064H460.577C471.701 35.0064 478.173 42.0556 478.173 55.0511C478.173 68.8618 472.036 75.8151 460.577 75.8151H452.378V35.0064Z" fill="#103F8E"/>
<path d="M536.859 19.6132C515.907 19.6132 502.674 33.3759 502.674 55.4347C502.674 77.4935 515.859 91.2084 536.859 91.2084C557.811 91.2084 570.996 77.4935 570.996 55.4347C570.996 33.3759 557.811 19.6132 536.859 19.6132ZM536.859 33.9034C546.688 33.9034 553.113 42.2474 553.113 55.4347C553.113 68.5741 546.688 76.9181 536.859 76.9181C526.982 76.9181 520.605 68.5741 520.605 55.4347C520.605 42.2474 527.03 33.9034 536.859 33.9034Z" fill="#103F8E"/>
<path d="M597.175 20.812H579.579V65.4571C579.579 80.9942 591.374 91.2084 609.401 91.2084C627.381 91.2084 639.176 80.9942 639.176 65.4571V20.812H621.579V63.5869C621.579 71.6432 617.216 76.4385 609.401 76.4385C601.538 76.4385 597.175 71.6432 597.175 63.5869V20.812Z" fill="#103F8E"/>
<path d="M682.71 90.0095C697.526 90.0095 706.875 82.193 706.875 70.0607C706.875 60.8535 699.491 53.9002 690.142 53.4686V53.085C697.813 52.03 703.663 45.8439 703.663 38.0754C703.663 27.3817 695.464 20.812 681.847 20.812H649.676V90.0095H682.71ZM667.272 33.28H677.197C683.094 33.28 686.546 36.1573 686.546 41.0006C686.546 45.9878 682.71 49.0089 676.334 49.0089H667.272V33.28ZM667.272 77.5415V59.7026H677.628C684.868 59.7026 688.991 62.8676 688.991 68.5261C688.991 74.3765 684.964 77.5415 677.724 77.5415H667.272Z" fill="#103F8E"/>
<path d="M760.527 75.8151H731.903V20.812H714.307V90.0095H760.527V75.8151Z" fill="#103F8E"/>
<path d="M816 75.8151H786.178V61.7167H814.226V48.7691H786.178V35.0064H816V20.812H768.582V90.0095H816V75.8151Z" fill="#103F8E"/>
<path d="M340.631 159.756C340.823 173.184 351.706 181 369.35 181C387.186 181 398.55 172.224 398.55 158.462C398.55 147.528 392.412 141.342 378.748 138.705L369.782 137.026C362.542 135.54 359.474 133.478 359.474 129.737C359.474 125.517 363.549 122.736 369.686 122.736C376.015 122.736 380.666 125.757 381.001 130.792H397.207C397.015 117.797 386.803 109.405 369.494 109.405C353.48 109.405 341.973 118.037 341.973 131.464C341.973 141.966 348.542 148.871 361.296 151.317L370.357 153.091C378.22 154.721 381.145 156.591 381.145 160.428C381.145 164.6 376.686 167.669 369.83 167.669C363.309 167.669 357.987 164.504 357.364 159.756H340.631Z" fill="#103F8E"/>
<path d="M454.215 165.607H424.392V151.508H452.441V138.561H424.392V124.798H454.215V110.604H406.796V179.801H454.215V165.607Z" fill="#103F8E"/>
<path d="M480.825 179.801V139.184H481.208L510.695 179.801H524.599V110.604H507.914V150.837H507.531L478.188 110.604H464.14V179.801H480.825Z" fill="#103F8E"/>
<path d="M532.894 159.756C533.086 173.184 543.969 181 561.614 181C579.449 181 590.813 172.224 590.813 158.462C590.813 147.528 584.675 141.342 571.011 138.705L562.045 137.026C554.805 135.54 551.737 133.478 551.737 129.737C551.737 125.517 555.812 122.736 561.949 122.736C568.278 122.736 572.929 125.757 573.264 130.792H589.47C589.278 117.797 579.066 109.405 561.757 109.405C545.743 109.405 534.236 118.037 534.236 131.464C534.236 141.966 540.805 148.871 553.559 151.317L562.62 153.091C570.484 154.721 573.408 156.591 573.408 160.428C573.408 164.6 568.949 167.669 562.093 167.669C555.572 167.669 550.25 164.504 549.627 159.756H532.894Z" fill="#103F8E"/>
<path d="M137.512 0L320.083 -7.98045e-06L320.083 181.229L137.512 181.229L137.512 107.09L186.287 107.09C190.156 116.929 197.367 125.117 206.672 130.238C215.978 135.36 226.794 137.094 237.25 135.14C247.707 133.185 257.147 127.667 263.939 119.537C270.731 111.407 274.448 101.176 274.448 90.6144C274.448 80.0525 270.731 69.8226 263.939 61.6926C257.147 53.5626 247.707 48.0436 237.25 46.0895C226.794 44.1355 215.978 45.869 206.672 50.9907C197.367 56.1124 190.156 64.3002 186.287 74.1391L137.512 74.1391L137.512 0Z" fill="#103F8E"/>
<path fill-rule="evenodd" clip-rule="evenodd" d="M69.778 51.2756C62.8959 47.2218 54.8738 44.8964 46.3086 44.8964C20.7331 44.8964 -3.14215e-06 65.6294 -2.02421e-06 91.205C-9.06271e-07 116.78 20.7331 137.514 46.3086 137.514C66.4067 137.514 83.5143 124.71 89.9203 106.815L137.514 106.815L137.514 73.9488L89.2952 73.9488C88.4334 71.8041 87.4158 69.7388 86.2564 67.7669C84.2912 64.3614 81.8838 61.2191 79.0896 58.4249C76.3038 55.6391 73.1718 53.2377 69.778 51.2756Z" fill="#FF5740"/>
</svg>
