<?xml version="1.0" encoding="utf-8"?>
<!-- Generator: Adobe Illustrator 26.0.1, SVG Export Plug-In . SVG Version: 6.00 Build 0)  -->
<svg version="1.1" id="Calque_1" xmlns="http://www.w3.org/2000/svg" xmlns:xlink="http://www.w3.org/1999/xlink" x="0px" y="0px"
	 viewBox="0 0 307 176.9" style="enable-background:new 0 0 307 176.9;" xml:space="preserve">
<style type="text/css">
	.st0{fill:#FF5740;stroke:#FF5740;stroke-width:2;stroke-miterlimit:10;}
</style>
<g id="Calque_2_00000117651944699634242190000008132852946611768469_">
	<g id="Calque_1-2">
		<polygon class="st0" points="180.1,106.5 174.4,106.5 174.4,100.8 175.9,100.8 175.9,105 180.1,105 		"/>
		<rect x="174.4" y="84.3" class="st0" width="1.5" height="8.2"/>
		<polygon class="st0" points="175.9,76.1 174.4,76.1 174.4,70.3 180.1,70.3 180.1,71.8 175.9,71.8 		"/>
		<rect x="192.5" y="70.3" class="st0" width="12.4" height="1.5"/>
		<path class="st0" d="M222.7,71.8h-5.5v-1.5h4.5c0.6-1.4,1.3-2.8,2.1-4.1l1.3,0.8c-0.8,1.4-1.6,2.9-2.2,4.4L222.7,71.8z"/>
		<path class="st0" d="M266.1,132.3l-0.1-1.5c3.2-0.3,6.4-1,9.5-2l0.5,1.4C272.7,131.3,269.4,132,266.1,132.3z M256.1,132.1
			c-3.3-0.4-6.6-1.3-9.7-2.4l0.5-1.4c3,1.1,6.2,1.9,9.4,2.4L256.1,132.1z M284.9,126l-0.8-1.3c2.8-1.7,5.3-3.7,7.6-5.9l1,1.1
			C290.4,122.2,287.8,124.3,284.9,126z M237.5,125.1c-2.8-1.9-5.3-4-7.6-6.5l1.1-1c2.2,2.4,4.7,4.4,7.4,6.2L237.5,125.1z
			 M299.1,112.1l-1.3-0.9c1.7-2.7,3.2-5.6,4.2-8.7l1.4,0.5C302.4,106.3,300.9,109.3,299.1,112.1L299.1,112.1z M305.7,93.3l-1.5-0.2
			c0.2-1.6,0.3-3.2,0.3-4.8c0-1.6-0.1-3.2-0.3-4.9l1.5-0.2c0.2,1.7,0.3,3.3,0.3,5C306,90,305.9,91.7,305.7,93.3L305.7,93.3z
			 M302,74.1c-1.1-3-2.5-6-4.3-8.7l1.3-0.8c1.8,2.8,3.3,5.8,4.4,9L302,74.1z M230.9,59.3l-1.1-1c2.3-2.4,4.9-4.6,7.6-6.5l0.8,1.2
			C235.6,54.8,233.1,56.9,230.9,59.3z M291.7,58c-2.3-2.3-4.9-4.2-7.6-5.9l0.8-1.3c2.9,1.7,5.5,3.8,7.9,6.1L291.7,58z M246.8,48.6
			l-0.5-1.4c3.1-1.2,6.4-2,9.7-2.5l0.2,1.5C253,46.7,249.8,47.5,246.8,48.6L246.8,48.6z M275.3,48c-3.1-1-6.2-1.7-9.5-2l0.1-1.5
			c3.3,0.3,6.6,1,9.8,2L275.3,48z"/>
		<path class="st0" d="M223.8,110.6c-0.8-1.3-1.5-2.7-2.1-4.1h-4.5V105h5.5l0.2,0.4c0.7,1.5,1.4,3,2.2,4.4L223.8,110.6z"/>
		<rect x="192.5" y="105" class="st0" width="12.4" height="1.5"/>
		<path class="st0" d="M126.5,110.6l-1.3-0.8c0.8-1.4,1.6-2.9,2.2-4.4l0.2-0.4h5.5v1.5h-4.5C128,107.9,127.3,109.3,126.5,110.6z"/>
		<rect x="145.5" y="105" class="st0" width="12.3" height="1.5"/>
		<polygon class="st0" points="175.9,110.8 174.4,110.8 174.4,106.5 170.1,106.5 170.1,105 175.9,105 		"/>
		<path class="st0" d="M175.9,161.6h-1.5v-8.5h1.5V161.6z M175.9,144.6h-1.5v-8.5h1.5V144.6z M175.9,127.6h-1.5v-8.5h1.5V127.6z"/>
		<polygon class="st0" points="175.9,175.9 170.1,175.9 170.1,174.4 174.4,174.4 174.4,170.1 175.9,170.1 		"/>
		<path class="st0" d="M160.5,175.9h-9.6v-1.5h9.6V175.9z M141.3,175.9h-9.6v-1.5h9.6V175.9z M122.1,175.9h-9.6v-1.5h9.6V175.9z
			 M102.8,175.9h-9.6v-1.5h9.6V175.9z M83.6,175.9H74v-1.5h9.6L83.6,175.9z M64.4,175.9h-9.6v-1.5h9.6V175.9z M45.2,175.9h-9.6v-1.5
			h9.6V175.9z M26,175.9h-9.6v-1.5H26L26,175.9z"/>
		<polygon class="st0" points="6.7,175.9 1,175.9 1,170.1 2.5,170.1 2.5,174.4 6.7,174.4 		"/>
		<path class="st0" d="M2.5,160.5H1v-9.6h1.5V160.5z M2.5,141.3H1v-9.6h1.5V141.3z M2.5,122.1H1v-9.6h1.5V122.1z M2.5,102.8H1v-9.6
			h1.5V102.8z M2.5,83.6H1V74h1.5V83.6z M2.5,64.4H1v-9.6h1.5V64.4z M2.5,45.2H1v-9.6h1.5V45.2z M2.5,26H1v-9.6h1.5V26z"/>
		<polygon class="st0" points="2.5,6.7 1,6.7 1,1 6.7,1 6.7,2.5 2.5,2.5 		"/>
		<path class="st0" d="M160.5,2.5h-9.6V1h9.6V2.5z M141.3,2.5h-9.6V1h9.6V2.5z M122.1,2.5h-9.6V1h9.6V2.5z M102.8,2.5h-9.6V1h9.6
			V2.5z M83.6,2.5H74V1h9.6L83.6,2.5z M64.4,2.5h-9.6V1h9.6V2.5z M45.2,2.5h-9.6V1h9.6V2.5z M26,2.5h-9.6V1H26V2.5z"/>
		<polygon class="st0" points="175.9,6.7 174.4,6.7 174.4,2.5 170.1,2.5 170.1,1 175.9,1 		"/>
		<path class="st0" d="M175.9,57.6h-1.5v-8.5h1.5V57.6z M175.9,40.6h-1.5v-8.4h1.5V40.6z M175.9,23.6h-1.5v-8.4h1.5V23.6z"/>
		<polygon class="st0" points="175.9,71.8 170.1,71.8 170.1,70.3 174.4,70.3 174.4,66.1 175.9,66.1 		"/>
		<rect x="145.5" y="70.3" class="st0" width="12.3" height="1.5"/>
		<path class="st0" d="M133.1,71.8h-5.5l-0.2-0.4c-0.7-1.5-1.4-3-2.2-4.4l1.3-0.8c0.8,1.3,1.5,2.7,2.1,4.1h4.5V71.8z"/>
		<path class="st0" d="M84.3,132.3c-3.3-0.3-6.6-1-9.8-2.1l0.5-1.4c3.1,1,6.2,1.7,9.4,2L84.3,132.3z M94.3,132.1l-0.2-1.5
			c3.2-0.4,6.3-1.2,9.4-2.4l0.5,1.4C100.8,130.9,97.6,131.7,94.3,132.1L94.3,132.1z M65.4,126c-2.8-1.7-5.5-3.8-7.9-6.2l1-1.1
			c2.3,2.3,4.9,4.3,7.6,5.9L65.4,126z M112.9,125.1l-0.8-1.2c2.7-1.8,5.2-3.9,7.4-6.2l1.1,1C118.2,121,115.7,123.2,112.9,125.1
			L112.9,125.1z M51.2,112.1c-1.8-2.8-3.3-5.8-4.4-9l1.4-0.5c1.1,3,2.5,6,4.2,8.7L51.2,112.1z M44.6,93.4c-0.2-1.7-0.3-3.3-0.3-5
			c0-1.7,0.1-3.3,0.3-5l1.5,0.2c-0.2,1.6-0.3,3.2-0.3,4.9c0,1.6,0.1,3.2,0.3,4.8L44.6,93.4z M48.3,74.1l-1.4-0.5
			c1.1-3.2,2.6-6.2,4.4-9l1.3,0.8C50.8,68.2,49.4,71.1,48.3,74.1z M119.5,59.3c-2.2-2.4-4.7-4.5-7.4-6.3l0.8-1.2
			c2.8,1.9,5.3,4,7.6,6.5L119.5,59.3z M58.6,58l-1-1.1c2.4-2.3,5-4.4,7.9-6.1l0.8,1.3C63.5,53.7,61,55.7,58.6,58z M103.5,48.6
			c-3-1.1-6.2-1.9-9.4-2.4l0.2-1.5c3.3,0.4,6.5,1.3,9.7,2.4L103.5,48.6z M75,48l-0.5-1.4c3.2-1,6.5-1.7,9.8-2l0.2,1.4
			C81.3,46.3,78.1,47,75,48z"/>
	</g>
</g>
</svg>
