<svg width="48" height="48" viewBox="0 0 48 48" fill="none" xmlns="http://www.w3.org/2000/svg">
<path d="M22.8579 37.7143C22.8579 36.805 22.4967 35.9329 21.8537 35.2899C21.2107 34.6469 20.3386 34.2857 19.4292 34.2857H3.42869C2.51934 34.2857 1.64724 34.6469 1.00424 35.2899C0.361236 35.9329 0 36.805 0 37.7143V38.8571C0 43.3646 4.25157 48 11.429 48C18.6063 48 22.8579 43.3646 22.8579 38.8571V37.7143ZM17.7149 25.7143C17.7149 24.0472 17.0526 22.4484 15.8738 21.2696C14.6949 20.0908 13.0961 19.4286 11.429 19.4286C9.76183 19.4286 8.16298 20.0908 6.98414 21.2696C5.8053 22.4484 5.14303 24.0472 5.14303 25.7143C5.14303 27.3814 5.8053 28.9802 6.98414 30.159C8.16298 31.3378 9.76183 32 11.429 32C13.0961 32 14.6949 31.3378 15.8738 30.159C17.0526 28.9802 17.7149 27.3814 17.7149 25.7143ZM32.68 5.23657C32.4673 5.4487 32.2985 5.70067 32.1833 5.97807C32.0681 6.25547 32.0086 6.55286 32.0084 6.85324C32.0082 7.15362 32.0672 7.45109 32.182 7.72866C32.2969 8.00622 32.4653 8.25843 32.6777 8.47086L40.1979 16H25.1437L24.6294 15.9909C21.0835 15.8578 17.7271 14.3556 15.2656 11.7999C12.804 9.24425 11.4288 5.83401 11.429 2.28571C11.429 1.67951 11.1881 1.09812 10.7595 0.66947C10.3308 0.240816 9.7494 0 9.14317 0C8.53694 0 7.95554 0.240816 7.52687 0.66947C7.0982 1.09812 6.85738 1.67951 6.85738 2.28571L6.86652 2.85714C7.01498 7.60551 9.00567 12.1097 12.4171 15.4161C15.8285 18.7224 20.3929 20.5714 25.1437 20.5714H40.2048L32.6777 28.0983C32.4655 28.3107 32.2971 28.5627 32.1823 28.8402C32.0675 29.1176 32.0085 29.4149 32.0086 29.7151C32.0087 30.0153 32.068 30.3126 32.183 30.5899C32.298 30.8672 32.4664 31.1192 32.6788 31.3314C32.8912 31.5436 33.1433 31.712 33.4207 31.8267C33.6981 31.9415 33.9954 32.0006 34.2957 32.0005C34.5959 32.0004 34.8932 31.9411 35.1705 31.8261C35.4479 31.7111 35.6999 31.5427 35.9121 31.3303L47.3319 19.9063C47.7597 19.4777 48 18.897 48 18.2914C48 17.6859 47.7597 17.1051 47.3319 16.6766L35.9121 5.23886C35.4834 4.81035 34.9021 4.56963 34.296 4.56963C33.6899 4.56963 33.1086 4.81035 32.68 5.23886V5.23657Z" fill="#DFE4EC"/>
</svg>
