<svg width="44" height="48" viewBox="0 0 44 48" fill="none" xmlns="http://www.w3.org/2000/svg">
<path d="M25.3077 0V13.8795C25.3077 15.1065 25.7951 16.2833 26.6628 17.1509C27.5304 18.0186 28.7072 18.506 29.9342 18.506H43.8137V41.6386C43.8137 42.8656 43.3263 44.0423 42.4586 44.91C41.591 45.7776 40.4142 46.2651 39.1872 46.2651H19.5014L26.8344 38.932C28.6499 37.1176 29.725 34.6923 29.8505 32.1287C29.976 29.565 29.1429 27.0463 27.5134 25.0632C25.8839 23.0801 23.5746 21.7744 21.0352 21.4004C18.4959 21.0264 15.9082 21.6109 13.7761 23.04C11.7262 21.6659 9.25216 21.071 6.80165 21.3629V4.62651C6.80165 3.39948 7.28909 2.22271 8.15673 1.35507C9.02436 0.487434 10.2011 0 11.4282 0H25.3077ZM28.7776 1.15663V13.8795C28.7776 14.1863 28.8994 14.4805 29.1163 14.6974C29.3332 14.9143 29.6274 15.0361 29.9342 15.0361H42.6571L28.7776 1.15663ZM13.7761 48C13.5483 48.0002 13.3227 47.9553 13.1123 47.868C12.9019 47.7806 12.7108 47.6525 12.5501 47.4911L2.34864 37.2943C1.60392 36.5494 1.01321 35.6651 0.61023 34.692C0.207249 33.7188 -0.00010735 32.6758 4.16929e-08 31.6225C0.000107433 30.5692 0.207676 29.5262 0.610855 28.5532C1.01403 27.5801 1.60493 26.6959 2.3498 25.9512C3.09467 25.2065 3.97893 24.6158 4.95209 24.2128C5.92525 23.8098 6.96826 23.6025 8.02156 23.6026C9.07485 23.6027 10.1178 23.8103 11.0909 24.2134C12.064 24.6166 12.9481 25.2075 13.6928 25.9524L13.7761 26.0357L13.8594 25.9524C14.5999 25.1889 15.4848 24.5804 16.4627 24.1622C17.4406 23.744 18.492 23.5245 19.5555 23.5164C20.6191 23.5084 21.6736 23.7119 22.6577 24.1152C23.6418 24.5186 24.5359 25.1136 25.2879 25.8658C26.0399 26.6179 26.6347 27.5121 27.0379 28.4963C27.441 29.4805 27.6444 30.5351 27.6361 31.5986C27.6278 32.6622 27.4081 33.7135 26.9897 34.6913C26.5713 35.6691 25.9626 36.5539 25.199 37.2943L15.0021 47.4911C14.8414 47.6525 14.6504 47.7806 14.4399 47.868C14.2295 47.9553 14.0039 48.0002 13.7761 48Z" fill="#DFE4EC"/>
</svg>
