<svg width="48" height="48" viewBox="0 0 48 48" fill="none" xmlns="http://www.w3.org/2000/svg">
<path d="M26.2729 22.6532C25.9879 22.6098 25.7001 22.5881 25.4118 22.5882H5.64706C4.14937 22.5882 2.71301 23.1832 1.65399 24.2422C0.594956 25.3013 0 26.7376 0 28.2353V32.4706C0 38.2701 5.89553 42.3529 15.5294 42.3529C17.5962 42.3529 19.4936 42.1638 21.1934 41.8108C20.249 39.7683 19.7614 37.5444 19.7647 35.2941C19.7647 30.0819 22.3341 25.4682 26.2729 22.6532ZM35.2941 19.7647C37.1662 19.7647 38.9617 19.021 40.2855 17.6972C41.6092 16.3734 42.3529 14.578 42.3529 12.7059C42.3529 10.8338 41.6092 9.03833 40.2855 7.71454C38.9617 6.39075 37.1662 5.64706 35.2941 5.64706C33.422 5.64706 31.6266 6.39075 30.3028 7.71454C28.979 9.03833 28.2353 10.8338 28.2353 12.7059C28.2353 14.578 28.979 16.3734 30.3028 17.6972C31.6266 19.021 33.422 19.7647 35.2941 19.7647ZM25.4118 9.88235C25.4118 7.26139 24.3706 4.74777 22.5173 2.89447C20.664 1.04117 18.1504 0 15.5294 0C12.9084 0 10.3948 1.04117 8.54153 2.89447C6.68823 4.74777 5.64706 7.26139 5.64706 9.88235C5.64706 12.5033 6.68823 15.0169 8.54153 16.8702C10.3948 18.7235 12.9084 19.7647 15.5294 19.7647C18.1504 19.7647 20.664 18.7235 22.5173 16.8702C24.3706 15.0169 25.4118 12.5033 25.4118 9.88235ZM48 35.2941C48 38.6639 46.6614 41.8957 44.2785 44.2785C41.8957 46.6614 38.6639 48 35.2941 48C31.9243 48 28.6925 46.6614 26.3097 44.2785C23.9269 41.8957 22.5882 38.6639 22.5882 35.2941C22.5882 31.9243 23.9269 28.6925 26.3097 26.3097C28.6925 23.9269 31.9243 22.5882 35.2941 22.5882C38.6639 22.5882 41.8957 23.9269 44.2785 26.3097C46.6614 28.6925 48 31.9243 48 35.2941ZM41.9407 30.0593C41.8096 29.9278 41.6538 29.8235 41.4823 29.7523C41.3107 29.6812 41.1269 29.6445 40.9412 29.6445C40.7555 29.6445 40.5716 29.6812 40.4001 29.7523C40.2286 29.8235 40.0728 29.9278 39.9416 30.0593L32.4706 37.5332L30.6466 35.7064C30.3815 35.4413 30.022 35.2923 29.6471 35.2923C29.2722 35.2923 28.9126 35.4413 28.6475 35.7064C28.3824 35.9714 28.2335 36.331 28.2335 36.7059C28.2335 37.0808 28.3824 37.4403 28.6475 37.7054L31.4711 40.5289C31.6022 40.6604 31.758 40.7647 31.9295 40.8359C32.101 40.9071 32.2849 40.9437 32.4706 40.9437C32.6563 40.9437 32.8402 40.9071 33.0117 40.8359C33.1832 40.7647 33.339 40.6604 33.4701 40.5289L41.9407 32.0584C42.0722 31.9272 42.1765 31.7714 42.2477 31.5999C42.3188 31.4284 42.3555 31.2445 42.3555 31.0588C42.3555 30.8731 42.3188 30.6893 42.2477 30.5177C42.1765 30.3462 42.0722 30.1904 41.9407 30.0593Z" fill="#DFE4EC"/>
</svg>
