<svg width="1417" height="2780" viewBox="0 0 1417 2780" fill="none" xmlns="http://www.w3.org/2000/svg">
<path d="M893.062 1425.66L1190.15 1505.26L1081.99 1908.92C1151.05 1964 1199.04 2041.18 1217.88 2127.48C1236.73 2213.78 1225.28 2303.94 1185.47 2382.8C1145.66 2461.65 1079.91 2524.39 999.277 2560.47C918.645 2596.55 828.049 2603.77 742.724 2580.9C657.399 2558.04 582.548 2506.49 530.758 2434.93C478.968 2363.37 453.398 2276.16 458.348 2187.96C463.297 2099.77 498.465 2015.97 557.936 1950.65C617.408 1885.33 697.556 1842.48 784.904 1829.31L893.062 1425.66Z" fill="#FF5740" fill-opacity="0.2"/>
<path d="M1340.09 351.361C1254.76 328.53 1164.18 335.768 1083.57 371.859C1002.95 407.949 937.219 470.691 897.416 549.539C857.613 628.387 846.168 718.534 865.004 804.827C883.839 891.12 931.808 968.298 1000.85 1023.39L893.061 1425.64L298.888 1266.44L696.909 -218.999L2182.34 179.022L1784.32 1664.46L1190.15 1505.25L1297.93 1102.99C1385.27 1089.8 1465.4 1046.95 1524.86 981.627C1584.32 916.31 1619.48 832.513 1624.43 744.324C1629.38 656.135 1603.82 568.93 1552.04 497.369C1500.27 425.808 1425.43 374.253 1340.12 351.371L1340.09 351.361Z" fill="#FF5740" fill-opacity="0.2"/>
</svg>
