<svg width="33" height="24" viewBox="0 0 33 24" fill="none" xmlns="http://www.w3.org/2000/svg">
<path d="M30.2802 10.6286C28.9077 9.51429 27.7068 8.91429 26.7632 8.91429C26.849 8.31429 27.2779 7.37143 28.1357 6C28.9935 4.62857 30.0229 3.51429 31.2238 2.57143C31.138 1.45714 30.5375 0.6 29.4224 0C27.2779 0.685714 25.1334 1.97143 23.2462 3.85714C21.2732 5.74286 19.815 7.88571 18.614 10.2857C17.4989 12.6857 16.8984 14.9143 16.8984 17.0571C16.8984 19.2 17.5847 20.9143 18.9572 22.1143C20.3297 23.3143 22.131 24 24.2756 24C26.4201 24 28.3072 23.1429 29.8513 21.4286C31.3953 19.7143 32.1674 17.7429 32.1674 15.6857C32.3389 13.4571 31.6527 11.8286 30.2802 10.6286Z" fill="#FF5740"/>
<path d="M13.2102 10.6286C11.8377 9.51429 10.6368 8.91429 9.6932 8.91429C9.77898 8.31429 10.2937 7.37143 11.1515 6C12.0093 4.62857 13.0386 3.51429 14.2396 2.57143C14.1538 1.37143 13.5533 0.514286 12.4382 0C9.17851 1.02857 6.26198 3.25714 3.77434 6.77143C1.28671 10.2857 0 13.4571 0 16.1143C0 18.8571 0.686244 20.8286 2.05873 22.0286C3.43122 23.2286 5.23261 23.9143 7.37712 23.9143C9.52164 23.9143 11.4088 23.0571 12.9529 21.3429C14.4969 19.6286 15.2689 17.6571 15.2689 15.6C15.3547 13.4571 14.5827 11.8286 13.2102 10.6286Z" fill="#FF5740"/>
</svg>
